<svg width="40" height="40" viewBox="0 0 40 40" fill="none" xmlns="http://www.w3.org/2000/svg">
<circle cx="20" cy="20" r="20" fill="#886788"/>
<path fill-rule="evenodd" clip-rule="evenodd" d="M25.4299 6.23466C24.0254 6.1719 23.5776 6.15796 19.9999 6.15796C16.4223 6.15796 15.9745 6.17307 14.5712 6.23466C13.1679 6.29625 12.2101 6.51357 11.3719 6.82851C10.4943 7.15042 9.69804 7.65363 9.03951 8.30443C8.369 8.94244 7.85175 9.7141 7.52128 10.5671C7.19561 11.3806 6.9729 12.3103 6.90825 13.67C6.84359 15.0355 6.82922 15.4702 6.82922 18.9415C6.82922 22.4139 6.84479 22.8486 6.90825 24.2118C6.97171 25.5715 7.19561 26.5012 7.52128 27.3147C7.85176 28.1678 8.36986 28.9407 9.03951 29.5797C9.69804 30.2305 10.4943 30.7325 11.3719 31.0533C12.2101 31.3694 13.1679 31.5855 14.5688 31.6483C15.9745 31.711 16.4223 31.725 19.9999 31.725C23.5776 31.725 24.0254 31.7099 25.4299 31.6483C26.8308 31.5867 27.7886 31.3694 28.6268 31.0533C29.5057 30.7325 30.302 30.2296 30.9604 29.5797C31.6304 28.9413 32.1489 28.1687 32.4798 27.3158C32.8043 26.5023 33.027 25.5726 33.0916 24.2129C33.1563 22.8474 33.1707 22.4128 33.1707 18.9415C33.1707 15.469 33.1551 15.0344 33.0916 13.6723C33.0282 12.3103 32.8043 11.3806 32.4798 10.5671C32.1485 9.71419 31.6295 8.94164 30.9592 8.30326C30.3018 7.65305 29.5062 7.14978 28.628 6.82851C27.7898 6.51357 26.8319 6.29742 25.4311 6.23466H25.4299ZM14.6778 8.53569C16.0667 8.4741 16.4834 8.46131 19.9999 8.46131C23.5165 8.46131 23.9332 8.4741 25.3221 8.53569C26.6068 8.59264 27.3037 8.80066 27.7683 8.97614C28.3825 9.20857 28.8219 9.48399 29.2829 9.93142C29.7199 10.344 30.0562 10.8463 30.2671 11.4015C30.4479 11.8524 30.6622 12.5288 30.7209 13.7758C30.7844 15.1238 30.7975 15.5283 30.7975 18.9415C30.7975 22.3547 30.7844 22.7591 30.7209 24.1072C30.6622 25.3541 30.4479 26.0305 30.2671 26.4814C30.0564 27.0357 29.7199 27.539 29.2829 27.9515C28.8578 28.3757 28.3394 28.7023 27.7683 28.9068C27.3037 29.0823 26.6068 29.2903 25.3221 29.3472C23.9332 29.4088 23.5177 29.4216 19.9999 29.4216C16.4822 29.4216 16.0667 29.4088 14.6778 29.3472C13.393 29.2903 12.6962 29.0823 12.2316 28.9068C11.6174 28.6744 11.178 28.3989 10.717 27.9515C10.2799 27.539 9.9435 27.0357 9.73277 26.4814C9.55197 26.0305 9.33765 25.3541 9.27898 24.1072C9.21552 22.7591 9.20235 22.3547 9.20235 18.9415C9.20235 15.5283 9.21552 15.1238 9.27898 13.7758C9.33765 12.5288 9.55197 11.8524 9.73277 11.4015C9.97223 10.8053 10.256 10.3788 10.717 9.93142C11.1421 9.50732 11.6596 9.18092 12.2316 8.97614C12.6962 8.80066 13.393 8.59264 14.6778 8.53569ZM21.6822 22.8823C20.7427 23.2619 19.6966 23.3131 18.7225 23.0272C17.7484 22.7413 16.9067 22.1361 16.3413 21.3148C15.7759 20.4936 15.5218 19.5073 15.6224 18.5244C15.723 17.5415 16.172 16.623 16.8928 15.9257C17.3523 15.48 17.9079 15.1387 18.5196 14.9265C19.1313 14.7142 19.7839 14.6362 20.4304 14.6981C21.0769 14.7599 21.7012 14.9602 22.2584 15.2844C22.8155 15.6086 23.2917 16.0486 23.6527 16.5729C24.0136 17.0971 24.2503 17.6925 24.3457 18.3162C24.4411 18.9399 24.3928 19.5763 24.2043 20.1797C24.0159 20.7831 23.692 21.3385 23.2558 21.8058C22.8197 22.2731 22.2823 22.6408 21.6822 22.8823ZM24.7869 14.2952C24.1583 13.6851 23.412 13.2011 22.5906 12.8709C21.7693 12.5407 20.889 12.3707 19.9999 12.3707C19.1109 12.3707 18.2306 12.5407 17.4093 12.8709C16.5879 13.2011 15.8416 13.6851 15.213 14.2952C14.5844 14.9054 14.0857 15.6297 13.7455 16.4269C13.4053 17.2241 13.2302 18.0786 13.2302 18.9415C13.2302 19.8043 13.4053 20.6588 13.7455 21.456C14.0857 22.2532 14.5844 22.9775 15.213 23.5877C16.4826 24.8199 18.2045 25.5122 19.9999 25.5122C21.7954 25.5122 23.5173 24.8199 24.7869 23.5877C26.0565 22.3554 26.7697 20.6841 26.7697 18.9415C26.7697 17.1988 26.0565 15.5275 24.7869 14.2952ZM11.7287 13.3493C11.573 13.2066 11.4482 13.0351 11.362 12.8449C11.2757 12.6546 11.2297 12.4495 11.2265 12.2417C11.2234 12.0338 11.2633 11.8275 11.3438 11.6349C11.4243 11.4423 11.5438 11.2673 11.6953 11.1203C11.8467 10.9734 12.027 10.8574 12.2254 10.7792C12.4238 10.7011 12.6364 10.6624 12.8506 10.6654C13.0647 10.6684 13.276 10.7131 13.472 10.7969C13.668 10.8806 13.8447 11.0016 13.9917 11.1528C14.2775 11.4469 14.434 11.8375 14.4279 12.2417C14.4218 12.6459 14.2537 13.0319 13.9592 13.3177C13.6647 13.6035 13.267 13.7667 12.8506 13.7726C12.4341 13.7785 12.0317 13.6267 11.7287 13.3493Z" fill="white"/>
</svg>
