<svg width="124" height="33" viewBox="0 0 124 33" fill="none" xmlns="http://www.w3.org/2000/svg">
<path fill-rule="evenodd" clip-rule="evenodd" d="M22.7448 20.0134C22.7282 20.0426 22.7099 20.0713 22.6897 20.0991C22.5972 20.2268 22.5037 20.3546 22.409 20.4824C22.3601 20.5485 22.304 20.606 22.2426 20.6546C22.213 20.7275 22.1734 20.7976 22.1238 20.8632C22.0283 20.9891 21.9317 21.115 21.8342 21.2407C21.7838 21.3056 21.7264 21.3618 21.664 21.409C21.6327 21.4812 21.5916 21.5504 21.5404 21.6147C21.4418 21.7387 21.3423 21.8624 21.2418 21.9857C21.1897 22.0496 21.1308 22.1045 21.0671 22.1502C21.034 22.2218 20.9911 22.2902 20.9382 22.3534C20.8364 22.4751 20.7336 22.5964 20.63 22.7171C20.5762 22.7797 20.5159 22.8331 20.4509 22.8772C20.4159 22.948 20.3712 23.0153 20.3166 23.0772C20.2112 23.1965 20.105 23.3152 19.9979 23.4332C19.9423 23.4944 19.8804 23.5462 19.814 23.5885C19.777 23.6583 19.7303 23.7244 19.6738 23.7848C19.5647 23.9014 19.4548 24.0172 19.344 24.1321C19.2865 24.1917 19.2228 24.2417 19.1551 24.282C19.1158 24.3509 19.0669 24.4157 19.0084 24.4744C18.8955 24.5878 18.7816 24.7001 18.667 24.8114C18.6073 24.8693 18.5418 24.9173 18.4725 24.9554C18.4308 25.0231 18.3796 25.0864 18.3189 25.1433C18.2015 25.2532 18.0833 25.3618 17.9643 25.4692C17.9024 25.525 17.835 25.5706 17.7642 25.6062C17.7199 25.6725 17.6662 25.734 17.6032 25.7886C17.4813 25.8942 17.3586 25.9984 17.235 26.1011C17.1706 26.1546 17.101 26.1977 17.0283 26.2304C16.9811 26.2951 16.9245 26.3546 16.8589 26.4067C16.732 26.5076 16.6041 26.6068 16.4755 26.7042C16.4085 26.7549 16.3368 26.7948 16.2625 26.8242C16.2122 26.8868 16.1527 26.9437 16.0845 26.9928C15.9521 27.0879 15.8189 27.1811 15.6848 27.2722C15.6149 27.3198 15.5407 27.3562 15.4643 27.3818C15.4104 27.4421 15.3476 27.4962 15.2763 27.5418C15.2076 27.5857 15.1387 27.6291 15.0696 27.6719L14.6576 27.927L14.2185 27.7231C14.1431 27.6881 14.0663 27.6515 13.9883 27.6133C13.9081 27.5741 13.8362 27.5245 13.7734 27.4669C13.6906 27.45 13.6087 27.421 13.5302 27.3791C13.3851 27.3019 13.2363 27.2197 13.084 27.1327C13.0079 27.0892 12.9404 27.0362 12.8822 26.976C12.8018 26.9545 12.723 26.9213 12.6481 26.8758C12.5081 26.7909 12.3656 26.7021 12.2209 26.6095C12.1476 26.5626 12.0834 26.5069 12.0285 26.4446C11.9499 26.4193 11.8734 26.3827 11.8013 26.3343C11.6653 26.2429 11.5276 26.1484 11.3884 26.0506C11.3175 26.0007 11.2558 25.9424 11.2037 25.878C11.1264 25.8496 11.0516 25.8099 10.9817 25.7586C10.8492 25.6615 10.7154 25.5615 10.5807 25.4586C10.5117 25.406 10.4523 25.3452 10.4027 25.2787C10.3264 25.2473 10.2531 25.2047 10.1851 25.1507C10.0566 25.0487 9.92731 24.9442 9.79738 24.8372C9.73081 24.7823 9.67398 24.7199 9.62713 24.6521C9.55257 24.618 9.48138 24.573 9.41581 24.517C9.29065 24.41 9.16502 24.3007 9.03905 24.1891C8.97412 24.1316 8.91931 24.0668 8.87477 23.997C8.80102 23.9601 8.73105 23.9124 8.66715 23.8538C8.54615 23.7427 8.42494 23.6295 8.30362 23.5142C8.24105 23.4547 8.18874 23.3883 8.14676 23.3174C8.07473 23.2781 8.00683 23.2281 7.94529 23.1676C7.82742 23.0515 7.70954 22.9335 7.59175 22.8135C7.5313 22.7519 7.48134 22.6838 7.44183 22.6115C7.37125 22.5697 7.30515 22.5174 7.24577 22.4548C7.13229 22.3351 7.01897 22.2135 6.9059 22.09C6.84735 22.026 6.79958 21.9559 6.76251 21.8818C6.69305 21.8375 6.62846 21.7828 6.57101 21.7178C6.46172 21.5942 6.35274 21.4688 6.24416 21.3416C6.18802 21.2758 6.1428 21.2043 6.10834 21.1293C6.0407 21.0826 5.97826 21.0258 5.92326 20.959C5.81766 20.8309 5.71252 20.701 5.60791 20.5695C5.55423 20.502 5.51161 20.4291 5.47981 20.3531C5.41405 20.3041 5.35382 20.2453 5.30132 20.1768C5.20036 20.0452 5.09997 19.9119 5.00022 19.7769C4.94874 19.7073 4.90859 19.6327 4.87943 19.5553C4.81514 19.5039 4.75676 19.4427 4.70652 19.3721C4.61041 19.2372 4.51498 19.1006 4.42029 18.9625C4.37112 18.8908 4.33353 18.8144 4.3071 18.7358C4.2444 18.6819 4.188 18.6185 4.14011 18.5458C4.04901 18.4077 3.95868 18.268 3.86918 18.1268C3.82267 18.0535 3.78786 17.9759 3.76427 17.8964C3.70365 17.8404 3.64965 17.775 3.60447 17.7008C3.51813 17.5589 3.43266 17.4157 3.34812 17.2709C3.30436 17.196 3.27241 17.1173 3.25171 17.0371C3.19327 16.9789 3.14177 16.9117 3.09938 16.8359C3.01804 16.6906 2.93765 16.5439 2.85827 16.3957C2.81734 16.3193 2.78831 16.2396 2.77055 16.1589C2.71439 16.0986 2.66548 16.0295 2.62595 15.9523C2.54984 15.8037 2.47475 15.6537 2.40075 15.5024C2.36272 15.4246 2.33668 15.344 2.32191 15.2627C2.26811 15.2004 2.22186 15.1296 2.18527 15.0511C2.11472 14.8997 2.04527 14.747 1.97698 14.593C1.94184 14.5137 1.9188 14.4321 1.90708 14.3502C1.85559 14.2859 1.81198 14.2133 1.77832 14.1334C1.71353 13.9796 1.64989 13.8245 1.58747 13.6681C1.55528 13.5874 1.53531 13.5049 1.52668 13.4225C1.47756 13.3562 1.43664 13.2819 1.40597 13.2006C1.34705 13.0445 1.28933 12.8872 1.23288 12.7287C1.20372 12.6468 1.18687 12.5634 1.18136 12.4807C1.13472 12.4125 1.09658 12.3366 1.06897 12.2542C1.01601 12.096 0.964298 11.9367 0.91389 11.7762C0.887825 11.6932 0.874128 11.6092 0.871758 11.5263C0.827687 11.4563 0.79241 11.379 0.767914 11.2955C0.720974 11.1355 0.67533 10.9744 0.631024 10.8121C0.6081 10.7281 0.597576 10.6437 0.598335 10.5607C0.556919 10.489 0.524567 10.4104 0.503225 10.3261C0.462351 10.1644 0.422807 10.0017 0.38463 9.83792C0.364878 9.75317 0.357529 9.66839 0.361394 9.58554C0.322703 9.51236 0.293325 9.4326 0.27516 9.34749C0.2576 9.26521 0.240385 9.18266 0.223521 9.09985C0.205112 9.00944 0.187869 8.91996 0.171782 8.83137C0.155485 8.74164 0.15279 8.65256 0.16222 8.56631C0.126403 8.48708 0.101305 8.4013 0.0890208 8.31058C0.0638962 8.12502 0.0441588 7.94357 0.0297212 7.76614C0.0220142 7.67143 0.0289232 7.57891 0.0485462 7.49084C0.0198645 7.40485 0.00350165 7.31305 0.00161212 7.21752C-0.00214745 7.02746 0.000676873 6.84222 0.009999 6.66174C0.0150529 6.56389 0.0351961 6.47044 0.0680343 6.38358C0.0515859 6.29145 0.0490135 6.19517 0.0623077 6.0974C0.089055 5.90069 0.124347 5.71024 0.16805 5.52603C0.19187 5.42562 0.231284 5.3331 0.283078 5.25045C0.284795 5.15193 0.30247 5.05202 0.337735 4.95424C0.408073 4.75921 0.488923 4.57305 0.579798 4.39574C0.628724 4.30028 0.69202 4.2172 0.765637 4.14782C0.792873 4.04956 0.837023 3.95426 0.898811 3.86622C1.01965 3.69404 1.15061 3.5338 1.29039 3.38509C1.36383 3.30695 1.44772 3.24481 1.53776 3.19879C1.59087 3.11258 1.65924 3.03392 1.7424 2.96704C1.90154 2.83906 2.06743 2.72337 2.23839 2.61903C2.32671 2.56512 2.42053 2.52826 2.51608 2.5075C2.58656 2.44017 2.66905 2.38324 2.76224 2.34027C2.93888 2.25883 3.119 2.18738 3.30119 2.12493C3.3947 2.09287 3.4898 2.07715 3.58344 2.07623C3.6625 2.02672 3.75054 1.98877 3.84583 1.96527C4.02669 1.92065 4.20895 1.88353 4.39151 1.85312C4.48561 1.83745 4.57872 1.83705 4.66835 1.85011C4.75129 1.81448 4.84096 1.79086 4.93544 1.7816C5.11602 1.7639 5.29653 1.75195 5.47603 1.74512C5.56914 1.74158 5.65949 1.75237 5.745 1.77554C5.82975 1.7506 5.91959 1.73787 6.01248 1.73932C6.19153 1.74212 6.36914 1.74951 6.54441 1.76088C6.63605 1.76683 6.72363 1.78636 6.80533 1.8174C6.89102 1.80118 6.9805 1.79728 7.07165 1.80744C7.24952 1.82725 7.4243 1.85084 7.595 1.87758C7.68572 1.89179 7.77118 1.91915 7.84978 1.95744C7.93669 1.94885 8.02631 1.95292 8.11637 1.97119C8.29513 2.00743 8.46823 2.04689 8.63437 2.0888C8.72391 2.11138 8.80696 2.14672 8.8821 2.1924C8.97031 2.19232 9.06002 2.20537 9.14875 2.23288C9.33557 2.29079 9.51166 2.35199 9.67397 2.41533C9.76916 2.45248 9.85457 2.5041 9.92868 2.56674C10.0294 2.58214 10.1291 2.61509 10.2238 2.66686C10.3317 2.72582 10.4412 2.79343 10.5421 2.87058C10.6214 2.93117 10.7016 2.99777 10.7816 3.06783C10.8558 3.13275 10.9169 3.20718 10.9648 3.28777C11.0456 3.32922 11.1216 3.38373 11.1896 3.45132C11.3088 3.56975 11.4329 3.69774 11.5603 3.83282C11.6225 3.89886 11.6731 3.97184 11.712 4.04916C11.7853 4.09363 11.8535 4.14943 11.9142 4.21644C12.0268 4.34094 12.1417 4.46999 12.2579 4.60235C12.3167 4.66935 12.364 4.74265 12.3999 4.81977C12.4708 4.8658 12.5365 4.92268 12.5945 4.99025C12.7044 5.11839 12.8151 5.24864 12.9257 5.38004C12.9828 5.44777 13.0283 5.52147 13.0626 5.59872C13.1322 5.6458 13.1964 5.70351 13.2529 5.77163C13.3616 5.90271 13.4698 6.03412 13.5768 6.16494C13.6326 6.23329 13.677 6.3074 13.7101 6.38489C13.7789 6.43279 13.8422 6.4912 13.8977 6.55987C14.006 6.69391 14.1123 6.82642 14.2161 6.95637C14.2648 7.01731 14.3044 7.08264 14.3351 7.1507C14.3479 7.06743 14.3724 6.98456 14.4095 6.90434C14.4833 6.74461 14.5607 6.5847 14.6418 6.42496C14.6836 6.34251 14.7362 6.26923 14.7969 6.20594C14.8156 6.11986 14.8471 6.03508 14.892 5.95426C14.978 5.79984 15.0675 5.64585 15.1609 5.49261C15.2092 5.41329 15.2676 5.34404 15.3334 5.28552C15.3589 5.20076 15.3971 5.11835 15.4486 5.04102C15.547 4.89333 15.6492 4.74663 15.7551 4.60121C15.81 4.52589 15.8742 4.46155 15.9449 4.4086C15.9774 4.32599 16.0226 4.24684 16.0807 4.17394C16.1918 4.03455 16.3067 3.89666 16.4255 3.76055C16.487 3.69014 16.5568 3.63156 16.6321 3.58501C16.672 3.50539 16.7242 3.43038 16.7889 3.36283C16.9124 3.23366 17.0398 3.10645 17.1711 2.98149C17.2389 2.91691 17.314 2.86498 17.3936 2.8256C17.4408 2.74989 17.4999 2.67995 17.5707 2.61867C17.7061 2.5016 17.8451 2.38692 17.9881 2.27488C18.0618 2.21703 18.1417 2.17253 18.2248 2.141C18.2791 2.07011 18.3447 2.00615 18.4212 1.95198C18.5672 1.84862 18.7167 1.74799 18.87 1.65031C18.949 1.59998 19.0327 1.56352 19.1184 1.54029C19.1793 1.4751 19.2507 1.41791 19.332 1.37151C19.4869 1.28308 19.6453 1.19762 19.8072 1.11531C19.8905 1.07298 19.9772 1.04487 20.0645 1.03006C20.1312 0.971179 20.2075 0.921249 20.2927 0.882961C20.3742 0.846272 20.4566 0.810367 20.5398 0.775269C20.6251 0.739305 20.7097 0.705081 20.7936 0.672593C20.88 0.639134 20.9684 0.619952 21.0561 0.613898C21.1292 0.563372 21.2109 0.522907 21.2999 0.495049C21.4794 0.438883 21.656 0.39106 21.8298 0.351649C21.9252 0.330017 22.0204 0.324458 22.1127 0.333197C22.1974 0.292805 22.2899 0.265116 22.3879 0.252834C22.5871 0.227881 22.7826 0.214893 22.9742 0.214119C23.0796 0.213693 23.1808 0.231463 23.275 0.264503C23.3737 0.243993 23.4776 0.23994 23.5832 0.254938C23.7948 0.284989 23.9995 0.331551 24.197 0.394361C24.3027 0.428004 24.398 0.479438 24.4806 0.544368C24.5848 0.557681 24.6884 0.589662 24.7869 0.641766C24.9771 0.742437 25.1555 0.858875 25.3223 0.989006C25.4083 1.0561 25.4791 1.13575 25.534 1.22342C25.6246 1.27003 25.709 1.33298 25.7826 1.41214C25.92 1.55979 26.0463 1.71708 26.1625 1.88196C26.2213 1.96529 26.2642 2.05517 26.2919 2.14795C26.3618 2.21277 26.4227 2.28989 26.4712 2.37833C26.5616 2.54302 26.6444 2.71335 26.7202 2.88806C26.7586 2.97635 26.782 3.06744 26.7915 3.15845C26.8454 3.23121 26.8893 3.31337 26.9206 3.40364C26.9792 3.57276 27.0327 3.7455 27.0814 3.92108C27.1061 4.01029 27.1168 4.10011 27.1148 4.18815C27.1574 4.2645 27.1898 4.34839 27.2096 4.43836C27.247 4.60819 27.2807 4.78043 27.3107 4.95454C27.3261 5.04354 27.3282 5.13177 27.3183 5.21715C27.353 5.2954 27.3772 5.37993 27.3889 5.4692C27.4113 5.63879 27.4307 5.80994 27.4474 5.98221C27.4559 6.07074 27.4516 6.15754 27.436 6.24074C27.4646 6.32016 27.4827 6.40495 27.4885 6.49352C27.4995 6.66264 27.508 6.83264 27.5143 7.00313C27.5175 7.09111 27.5083 7.17664 27.4882 7.258C27.512 7.3382 27.5253 7.42308 27.5262 7.511C27.528 7.67957 27.5278 7.8484 27.5256 8.01714C27.5244 8.10453 27.5111 8.18889 27.4874 8.26862C27.5072 8.34936 27.5164 8.4342 27.5133 8.52148C27.5122 8.55235 27.5111 8.5832 27.5098 8.61404C27.6306 8.60192 27.7507 8.5942 27.8698 8.59048C27.9694 8.58737 28.0649 8.6052 28.152 8.64003C28.2402 8.60889 28.3359 8.59496 28.435 8.60196C28.6245 8.61536 28.8103 8.63792 28.9913 8.668C29.088 8.68408 29.1768 8.71922 29.2547 8.76899C29.3457 8.75517 29.4409 8.75914 29.5357 8.78368C29.7196 8.8313 29.8971 8.88601 30.0668 8.94601C30.1591 8.97866 30.2405 9.02868 30.3086 9.09116C30.4009 9.09342 30.4943 9.11405 30.5837 9.15499C30.6708 9.19489 30.7551 9.23607 30.8364 9.27825L30.8578 9.28931L30.8783 9.30181C30.9725 9.35909 31.0655 9.42586 31.1567 9.50056C31.2411 9.56972 31.3057 9.65446 31.3495 9.74734C31.4394 9.78848 31.5221 9.84933 31.591 9.92942C31.7076 10.065 31.8236 10.217 31.9374 10.3857C31.9919 10.4666 32.0278 10.5548 32.046 10.6451C32.117 10.7018 32.1783 10.7733 32.225 10.8581C32.3083 11.0095 32.3897 11.1711 32.4684 11.3434C32.5076 11.4291 32.5286 11.5186 32.5329 11.6074C32.5927 11.6722 32.6416 11.7495 32.6751 11.8372C32.736 11.9964 32.7947 12.1632 32.8506 12.3378C32.8788 12.4259 32.8891 12.5154 32.8836 12.6026C32.935 12.6725 32.9745 12.7532 32.9983 12.8423C33.0418 13.0054 33.0829 13.1743 33.1214 13.3493C33.141 13.4384 33.1431 13.5274 33.1301 13.6126C33.1746 13.686 33.2066 13.7688 33.2226 13.8586C33.2521 14.0243 33.2793 14.1949 33.304 14.3704C33.3165 14.4597 33.3121 14.5476 33.2933 14.6306C33.3317 14.7062 33.3573 14.7902 33.3668 14.8798C33.3845 15.0459 33.4 15.216 33.4131 15.3902C33.4199 15.4798 33.41 15.5668 33.386 15.6481C33.4196 15.7258 33.44 15.8109 33.4442 15.9006C33.4519 16.067 33.4576 16.237 33.461 16.4104C33.4628 16.4998 33.4482 16.5857 33.42 16.6652C33.4493 16.7442 33.4651 16.8298 33.4646 16.9191C33.4643 16.9869 33.4636 17.0553 33.4626 17.1241C33.5157 17.0714 33.5696 17.0187 33.6241 16.9661C33.6889 16.9036 33.7623 16.856 33.8403 16.8231C33.8787 16.747 33.9313 16.6767 33.998 16.6162C34.1237 16.5022 34.2525 16.389 34.3841 16.2772C34.4531 16.2187 34.5298 16.1757 34.6102 16.1479C34.6537 16.0741 34.7112 16.007 34.7822 15.9508C34.9168 15.8444 35.054 15.7399 35.1935 15.6379C35.2671 15.584 35.3476 15.5466 35.4306 15.5249C35.4799 15.4539 35.543 15.3909 35.619 15.3401C35.7638 15.2433 35.9109 15.1495 36.06 15.0596C36.1392 15.0118 36.2239 14.9815 36.3097 14.9675C36.3662 14.9005 36.4361 14.843 36.5178 14.7994C36.6744 14.7159 36.8332 14.6369 36.9938 14.5633C37.0796 14.5239 37.1691 14.5033 37.2579 14.4997C37.3234 14.4387 37.4016 14.3892 37.4903 14.3558C37.6607 14.2916 37.8331 14.2339 38.0071 14.1839C38.1005 14.157 38.1949 14.1504 38.2857 14.1615C38.3623 14.1102 38.4502 14.0733 38.5463 14.0552C38.7308 14.0203 38.9171 13.9948 39.1046 13.98C39.2049 13.9721 39.302 13.9857 39.3913 14.017C39.4799 13.9821 39.577 13.9649 39.6781 13.9693C39.8709 13.9776 40.0639 13.9985 40.2566 14.0331C40.3581 14.0513 40.4506 14.0905 40.5306 14.1454C40.627 14.135 40.7271 14.1446 40.8251 14.1769C41.0088 14.2374 41.1903 14.3115 41.369 14.3998C41.4608 14.4452 41.5386 14.5079 41.6002 14.5822C41.6944 14.5985 41.7869 14.6345 41.8716 14.6914C41.9512 14.7448 42.0298 14.8011 42.1076 14.8606C42.1797 14.9157 42.2497 14.9722 42.3177 15.03C42.3894 15.0909 42.4461 15.1632 42.4873 15.242C42.5681 15.2788 42.6434 15.3316 42.7083 15.4003C42.8345 15.5339 42.9511 15.6728 43.0583 15.8166C43.1156 15.8933 43.1552 15.978 43.1778 16.0656C43.249 16.1207 43.3109 16.1906 43.3586 16.2738C43.4502 16.4333 43.5314 16.5969 43.6025 16.764C43.6399 16.852 43.6585 16.9434 43.66 17.0336C43.7159 17.1037 43.7596 17.1857 43.7866 17.2773C43.8378 17.4503 43.8793 17.6257 43.9115 17.803C43.9283 17.8953 43.9268 17.9867 43.9094 18.0733C43.9483 18.1522 43.9732 18.2396 43.9808 18.3328C43.9951 18.5077 44.0012 18.6837 43.9998 18.8604C43.999 18.9519 43.9812 19.0394 43.9495 19.1196C43.9731 19.2022 43.9822 19.2907 43.9741 19.3815C43.9588 19.552 43.937 19.7228 43.9091 19.8936C43.8946 19.982 43.8646 20.064 43.8223 20.1371C43.8334 20.2208 43.8299 20.3079 43.8097 20.3949C43.7716 20.5585 43.7283 20.7219 43.6799 20.8848C43.6548 20.9694 43.6156 21.0457 43.5656 21.1121C43.5665 21.1953 43.5529 21.28 43.5232 21.3629C43.4673 21.5189 43.407 21.6744 43.3425 21.829C43.3089 21.9095 43.2624 21.9805 43.2065 22.0406C43.199 22.1226 43.1772 22.2047 43.1398 22.2833C43.0693 22.4318 42.995 22.5794 42.9172 22.7258C42.8766 22.8022 42.8242 22.8681 42.7635 22.9224C42.7487 23.0029 42.7198 23.0821 42.676 23.1566C42.593 23.2976 42.5068 23.4374 42.4175 23.5756C42.3708 23.6479 42.3134 23.7089 42.2486 23.7577C42.2273 23.8363 42.1922 23.9126 42.1426 23.9829C42.0486 24.1163 41.9517 24.2482 41.8521 24.3782C41.7999 24.4464 41.7379 24.5024 41.6697 24.5458C41.6423 24.6223 41.6013 24.6954 41.5465 24.7614C41.4422 24.887 41.3355 25.0106 41.2263 25.132C41.169 25.1958 41.1028 25.2468 41.0314 25.2846C40.9981 25.3588 40.9515 25.4284 40.8917 25.4898C40.7776 25.6071 40.6612 25.722 40.5427 25.8342C40.4804 25.8933 40.4102 25.9388 40.3358 25.9708C40.2965 26.0422 40.2443 26.108 40.1795 26.1645C40.0556 26.2725 39.9298 26.3776 39.802 26.4797C39.7346 26.5335 39.6604 26.573 39.5832 26.5985C39.5378 26.6666 39.4799 26.7278 39.41 26.7786C39.2763 26.8759 39.1407 26.9698 39.0035 27.06C38.9309 27.1077 38.8529 27.1403 38.7731 27.1584C38.721 27.2223 38.6571 27.2781 38.5821 27.3222C38.4382 27.4067 38.2926 27.4871 38.1456 27.5631C38.0677 27.6034 37.9859 27.6276 37.9038 27.6371C37.8446 27.6957 37.7742 27.7446 37.694 27.7803C37.6175 27.8144 37.5406 27.8473 37.4633 27.8788C37.3903 27.9087 37.317 27.9387 37.2435 27.9689C37.1661 28.0006 37.0864 28.0175 37.0075 28.0209C36.9487 28.0741 36.8799 28.1181 36.8026 28.15C36.6565 28.2101 36.5097 28.2707 36.3623 28.3316C36.285 28.3635 36.2055 28.3806 36.1266 28.3843C36.0679 28.4376 35.9993 28.4818 35.9221 28.5138C35.7757 28.5745 35.6289 28.6355 35.482 28.6966C35.4048 28.7288 35.3252 28.7461 35.2463 28.7499C35.1877 28.8034 35.1192 28.8478 35.042 28.88C34.8953 28.9412 34.7486 29.0025 34.6022 29.0638C34.525 29.0961 34.4454 29.1136 34.3665 29.1176C34.308 29.1712 34.2396 29.2157 34.1624 29.2481C34.0154 29.3098 33.8688 29.3714 33.7229 29.4328C33.6458 29.4652 33.5663 29.4829 33.4875 29.487C33.4291 29.5407 33.3607 29.5853 33.2837 29.6178C33.1363 29.68 32.9897 29.7418 32.8443 29.8033C32.7672 29.8359 32.6876 29.8537 32.6087 29.858C32.5503 29.9118 32.482 29.9566 32.4049 29.9892C32.2572 30.0518 32.1109 30.1139 31.9662 30.1753C31.8892 30.208 31.8096 30.2259 31.7308 30.2303C31.6725 30.2842 31.6043 30.3291 31.5273 30.3618C31.3788 30.425 31.2323 30.4874 31.0881 30.5489C31.0114 30.5816 30.9321 30.5996 30.8533 30.6042C30.7952 30.658 30.7272 30.7029 30.6504 30.7356C30.5008 30.7996 30.3542 30.8623 30.2109 30.9236C30.1342 30.9564 30.0549 30.9746 29.9762 30.9792C29.9182 31.0331 29.8502 31.0781 29.7735 31.111C29.6225 31.1758 29.476 31.2387 29.3346 31.2995C29.2577 31.3326 29.1782 31.3509 29.0993 31.3556C29.0412 31.4098 28.9732 31.455 28.8963 31.4882C28.8187 31.5216 28.7431 31.5542 28.6696 31.586C28.5972 31.6172 28.5268 31.6476 28.4585 31.6771C28.3818 31.7103 28.3025 31.7287 28.2238 31.7336C28.1659 31.7878 28.0981 31.8331 28.0215 31.8663C27.9785 31.8849 27.9368 31.903 27.8965 31.9206C27.865 31.9342 27.8344 31.9475 27.8045 31.9605L27.2212 32.2141L26.9085 31.6562C26.8704 31.5882 26.8317 31.5184 26.7925 31.4468C26.7516 31.3722 26.7253 31.2934 26.7127 31.2137C26.6536 31.1596 26.6027 31.0945 26.5631 31.0193C26.4905 30.8812 26.4165 30.7379 26.3414 30.5897C26.3032 30.5144 26.2796 30.4355 26.2694 30.3562C26.2124 30.3007 26.1638 30.2346 26.1267 30.1589C26.0578 30.0183 25.9881 29.874 25.9179 29.7261C25.8818 29.65 25.8602 29.5708 25.8521 29.4915C25.7966 29.4347 25.7498 29.3675 25.7146 29.2911C25.6489 29.1484 25.5829 29.0029 25.5167 28.8546C25.4825 28.7779 25.4628 28.6984 25.4564 28.6191C25.4024 28.5611 25.3572 28.493 25.3239 28.416C25.2612 28.2713 25.1984 28.1243 25.1358 27.9751C25.1033 27.8977 25.0853 27.8176 25.0807 27.7382C25.0279 27.679 24.9842 27.6098 24.9525 27.532C24.8928 27.3853 24.8332 27.2367 24.7739 27.0864C24.743 27.0081 24.7268 26.9276 24.724 26.8479C24.6725 26.7875 24.6302 26.7172 24.6002 26.6386C24.5435 26.49 24.4872 26.3399 24.4313 26.1885C24.4022 26.1097 24.3878 26.029 24.3867 25.9495C24.3368 25.888 24.2962 25.8169 24.268 25.7378C24.2147 25.5879 24.1619 25.4368 24.1097 25.2845C24.0824 25.2048 24.0699 25.1236 24.0707 25.0438C24.022 24.981 23.9829 24.9088 23.9566 24.8288C23.9066 24.677 23.8573 24.5243 23.8089 24.3707C23.7835 24.2903 23.7729 24.2087 23.7757 24.1289C23.7285 24.0648 23.6913 23.9916 23.6669 23.9109C23.6207 23.7577 23.5753 23.6037 23.5309 23.4491C23.5076 23.3679 23.4992 23.2859 23.5041 23.2061C23.4585 23.1407 23.4232 23.0664 23.401 22.9849C23.3588 22.8299 23.3176 22.6744 23.2774 22.5183C23.2564 22.4364 23.2503 22.3541 23.2574 22.2743C23.2137 22.2075 23.1805 22.132 23.1606 22.0497C23.1229 21.8932 23.0863 21.7362 23.0509 21.5788C23.0323 21.4961 23.0288 21.4134 23.0385 21.3337C22.9968 21.2654 22.9659 21.1887 22.9486 21.1056C22.9158 20.9473 22.8843 20.7888 22.8542 20.6301C22.8384 20.5466 22.8377 20.4637 22.8501 20.3843C22.8108 20.3144 22.7825 20.2365 22.7682 20.1526C22.7603 20.1062 22.7525 20.0598 22.7448 20.0134ZM22.9815 2.03967C23.0427 2.03942 23.1024 2.03305 23.1601 2.02113C23.2147 2.0402 23.2718 2.05426 23.3312 2.06269C23.4466 2.07907 23.5536 2.10378 23.6532 2.13547C23.7057 2.15218 23.7586 2.1638 23.8113 2.17061C23.8531 2.20336 23.8984 2.23285 23.9469 2.25853C24.0406 2.30816 24.1303 2.36642 24.2163 2.43347C24.2617 2.46889 24.3094 2.49928 24.3587 2.5247C24.3889 2.5728 24.424 2.61872 24.464 2.66176C24.5415 2.74502 24.6164 2.83769 24.6886 2.94014C24.7261 2.99325 24.7681 3.04111 24.8138 3.08354C24.8321 3.14458 24.857 3.2046 24.8888 3.26264C24.9501 3.3743 25.0084 3.49374 25.0636 3.62085C25.0919 3.6861 25.1269 3.74633 25.1674 3.80108C25.1746 3.86971 25.1897 3.93859 25.2133 4.00656C25.2584 4.13654 25.3004 4.2721 25.3395 4.41293C25.3595 4.48514 25.3876 4.55287 25.4224 4.61541C25.4208 4.6876 25.4277 4.76113 25.444 4.83476C25.475 4.97552 25.5033 5.1201 25.5289 5.26818C25.542 5.34427 25.5641 5.4165 25.594 5.48396C25.5855 5.55761 25.5859 5.63349 25.596 5.71034C25.6154 5.8575 25.6324 6.00721 25.6471 6.15914C25.6547 6.23745 25.6718 6.31249 25.6973 6.38318C25.6834 6.45725 25.6785 6.53427 25.6836 6.61296C25.6934 6.76403 25.7011 6.91667 25.7067 7.07055C25.7096 7.15011 25.7225 7.22692 25.7442 7.29978C25.726 7.3737 25.7167 7.45115 25.7175 7.53088C25.7192 7.6843 25.719 7.83847 25.7169 7.99308C25.7159 8.07323 25.7251 8.15111 25.7434 8.22543C25.7215 8.29883 25.7085 8.37623 25.7057 8.45641C25.7002 8.6112 25.6931 8.76601 25.6843 8.9205C25.6798 9.00093 25.6857 9.07952 25.7009 9.15492C25.6988 9.16101 25.6968 9.16712 25.6948 9.17327C25.6817 9.17963 25.6688 9.18642 25.656 9.19366C25.4897 9.28757 25.3262 9.39358 25.1666 9.51249C25.0844 9.57367 25.0192 9.64938 24.9717 9.73351C24.8816 9.76559 24.7964 9.81674 24.7223 9.88713C24.587 10.0157 24.4559 10.1546 24.3295 10.3044C24.2649 10.3808 24.2191 10.467 24.1915 10.5573C24.1125 10.6071 24.042 10.6736 23.9855 10.7557C23.8824 10.9055 23.7834 11.0637 23.6887 11.2306C23.6409 11.315 23.612 11.405 23.6006 11.4958C23.5336 11.5569 23.4771 11.632 23.436 11.7194C23.3606 11.8794 23.2888 12.0462 23.2206 12.2199C23.1859 12.3084 23.1699 12.3997 23.1707 12.4894C23.1134 12.5575 23.0679 12.6377 23.0385 12.7278C22.9845 12.8929 22.9335 13.0636 22.8856 13.24C22.8611 13.3301 22.8548 13.421 22.8646 13.5085C22.8154 13.5809 22.7786 13.6639 22.7583 13.7548C22.7389 13.8409 22.7203 13.9283 22.7023 14.017C22.6858 14.0989 22.6701 14.1811 22.6552 14.2636C22.6397 14.3505 22.6403 14.4364 22.6551 14.5184C22.6159 14.5916 22.5889 14.673 22.577 14.7603C22.5545 14.925 22.5353 15.0909 22.5191 15.2577C22.5107 15.3448 22.5181 15.4297 22.539 15.5095C22.5059 15.585 22.4854 15.6675 22.4801 15.7547C22.4701 15.919 22.4629 16.0842 22.4584 16.2501C22.456 16.3367 22.469 16.4202 22.4949 16.4979C22.4672 16.5748 22.4523 16.6578 22.4526 16.7445C22.4531 16.9082 22.4561 17.0727 22.4614 17.2376C22.4615 17.239 22.4615 17.2404 22.4616 17.2418C22.4447 17.2767 22.4301 17.3124 22.4179 17.3486C22.3622 17.3988 22.3117 17.4569 22.2682 17.5225C22.1847 17.6483 22.1 17.7747 22.0142 17.9014C21.9699 17.9667 21.9352 18.0357 21.9097 18.1069C21.8528 18.156 21.801 18.2132 21.7561 18.278C21.6699 18.4025 21.5825 18.5272 21.4941 18.6521C21.4487 18.7163 21.4127 18.7844 21.3858 18.8547C21.3281 18.9025 21.2754 18.9584 21.2293 19.022C21.1406 19.1445 21.0509 19.267 20.9602 19.3894C20.9134 19.4527 20.8759 19.5201 20.8475 19.5899C20.7887 19.6365 20.7347 19.6913 20.6871 19.754C20.5958 19.8745 20.5035 19.9949 20.4102 20.115C20.3621 20.177 20.3232 20.2433 20.2933 20.3123C20.2336 20.3574 20.1785 20.4107 20.1297 20.4721C20.0356 20.5905 19.9407 20.7084 19.8449 20.8259C19.7954 20.8867 19.7549 20.952 19.7234 21.0202C19.6626 21.0638 19.6063 21.1157 19.556 21.1759C19.4592 21.2916 19.3615 21.4069 19.2631 21.5215C19.2122 21.5808 19.1701 21.6449 19.1369 21.7121C19.0752 21.7539 19.0177 21.8042 18.9659 21.8629C18.8662 21.9759 18.7657 22.0882 18.6644 22.1997C18.612 22.2575 18.5683 22.3202 18.5333 22.3862C18.4706 22.4262 18.4118 22.4747 18.3585 22.5316C18.2557 22.6416 18.1522 22.7506 18.048 22.8586C17.994 22.9146 17.9486 22.9757 17.9116 23.0405C17.8479 23.0784 17.7878 23.1249 17.7329 23.18C17.6271 23.2863 17.5205 23.3914 17.4134 23.4954C17.3577 23.5494 17.3104 23.6089 17.2715 23.6721C17.2067 23.7078 17.1452 23.752 17.0886 23.805C16.9794 23.9073 16.8695 24.0083 16.7591 24.108C16.7018 24.1596 16.6525 24.217 16.6114 24.2785C16.5457 24.3115 16.4829 24.3532 16.4247 24.4036C16.3121 24.5012 16.199 24.5973 16.0853 24.6918C16.0262 24.7409 15.9748 24.796 15.9314 24.8555C15.8646 24.8856 15.8003 24.9245 15.7402 24.9722C15.624 25.0646 15.5073 25.1551 15.3901 25.2438C15.3293 25.2898 15.2759 25.3421 15.2301 25.3991C15.1624 25.4259 15.0969 25.4614 15.0351 25.5058C14.9153 25.592 14.795 25.6761 14.6744 25.7581C14.6235 25.7927 14.5772 25.8316 14.5356 25.8741C14.4869 25.8327 14.4331 25.7959 14.3745 25.7647C14.2457 25.696 14.1125 25.6225 13.9752 25.5441C13.9063 25.5047 13.8346 25.4755 13.7615 25.4559C13.7086 25.4012 13.648 25.3524 13.58 25.3112C13.4525 25.2339 13.3222 25.1527 13.1894 25.0677C13.1222 25.0247 13.0515 24.9917 12.979 24.9684C12.9284 24.911 12.8698 24.8591 12.8034 24.8145C12.678 24.7303 12.5507 24.6429 12.4218 24.5523C12.3561 24.5061 12.2864 24.47 12.2146 24.4435C12.1662 24.3837 12.1095 24.3291 12.0446 24.2815C11.9215 24.1913 11.7972 24.0983 11.6717 24.0026C11.6075 23.9535 11.5388 23.9144 11.4676 23.8851C11.4214 23.823 11.3665 23.7659 11.3031 23.7156C11.1832 23.6205 11.0626 23.523 10.9412 23.423C10.879 23.3718 10.8122 23.3303 10.7424 23.2983C10.6985 23.2349 10.6459 23.1761 10.5846 23.1238C10.4676 23.0238 10.3501 22.9216 10.2323 22.8171C10.1715 22.7633 10.1057 22.7192 10.0365 22.6847C9.99477 22.6192 9.94396 22.5581 9.88417 22.5032C9.7709 22.3992 9.6574 22.2933 9.54377 22.1852C9.4852 22.1296 9.42121 22.0833 9.35364 22.0464C9.31424 21.9798 9.26573 21.9173 9.20812 21.8606C9.0977 21.7519 8.98726 21.6413 8.87689 21.5289C8.8203 21.4712 8.75796 21.4227 8.69173 21.3835C8.65465 21.3156 8.60833 21.2514 8.55273 21.1927C8.4464 21.0806 8.34023 20.9667 8.2343 20.851C8.17947 20.7911 8.11855 20.7403 8.05338 20.6987C8.01858 20.6292 7.97435 20.5631 7.92056 20.5023C7.81818 20.3865 7.7161 20.269 7.61441 20.1499C7.56186 20.0884 7.50295 20.0356 7.43951 19.9918C7.40718 19.9215 7.36537 19.8541 7.3139 19.7917C7.21502 19.6717 7.11658 19.5501 7.01866 19.4269C6.96845 19.3638 6.91163 19.3092 6.84999 19.2633C6.82016 19.192 6.78082 19.1235 6.73172 19.0595C6.63724 18.9363 6.54332 18.8116 6.45001 18.6853C6.40189 18.6202 6.34682 18.5635 6.2866 18.5153C6.25927 18.4428 6.22228 18.3727 6.17532 18.3067C6.08545 18.1805 5.99623 18.0529 5.90773 17.9238C5.8618 17.8568 5.80858 17.7979 5.74989 17.7475C5.72515 17.6738 5.6906 17.6022 5.64589 17.5344C5.56076 17.4053 5.47638 17.2748 5.39279 17.143C5.34938 17.0745 5.29843 17.0138 5.24174 16.9614C5.21966 16.8871 5.18776 16.8144 5.1456 16.7451C5.06499 16.6127 4.98521 16.4789 4.90631 16.3438C4.86551 16.274 4.81691 16.2116 4.7623 16.1572C4.74294 16.0823 4.71375 16.0086 4.67422 15.938C4.59834 15.8024 4.52336 15.6656 4.44933 15.5274C4.41119 15.4562 4.36502 15.3922 4.31257 15.3359C4.29598 15.2604 4.26954 15.1859 4.23272 15.114C4.16175 14.9754 4.09177 14.8356 4.0228 14.6946C3.98738 14.6221 3.94371 14.5565 3.8935 14.4983C3.8797 14.4225 3.85608 14.3471 3.82201 14.274C3.75628 14.133 3.69158 13.9907 3.62796 13.8473C3.59525 13.7735 3.55404 13.7063 3.50601 13.6462C3.49506 13.5698 3.47426 13.4936 3.44294 13.4192C3.3826 13.276 3.32334 13.1315 3.26522 12.9859C3.23527 12.9109 3.19655 12.842 3.15075 12.7801C3.14269 12.7033 3.12477 12.6263 3.09623 12.5507C3.04137 12.4054 2.98764 12.2589 2.93509 12.1113C2.90796 12.0351 2.87184 11.9648 2.82835 11.9012C2.8232 11.824 2.80819 11.7463 2.78251 11.6696C2.7332 11.5224 2.68507 11.3741 2.63814 11.2246C2.6139 11.1474 2.58042 11.0757 2.53933 11.0104C2.53711 10.9331 2.52504 10.8548 2.50225 10.7771C2.45855 10.6282 2.41606 10.4782 2.3748 10.3271C2.35347 10.249 2.32271 10.176 2.28409 10.1092C2.28478 10.0318 2.27567 9.95306 2.25581 9.87454C2.21774 9.72404 2.18092 9.57251 2.14536 9.41993C2.12697 9.34103 2.09896 9.26696 2.06286 9.19867C2.06646 9.12136 2.06029 9.04231 2.04338 8.96307C2.02702 8.88642 2.01098 8.8095 1.99527 8.73234C1.97941 8.65444 1.96463 8.57775 1.95092 8.50224C1.93715 8.42644 1.91448 8.35456 1.88419 8.28749C1.89214 8.21453 1.89144 8.13942 1.88114 8.0634C1.86023 7.90893 1.8441 7.76009 1.83243 7.61671C1.82629 7.54121 1.81121 7.46861 1.78832 7.39989C1.80395 7.32961 1.81152 7.25632 1.81003 7.18108C1.8071 7.03291 1.80936 6.89156 1.81633 6.75677C1.82003 6.68509 1.81543 6.6149 1.80338 6.54716C1.82742 6.48346 1.84472 6.41602 1.85429 6.3456C1.87328 6.20597 1.8978 6.07464 1.92711 5.95112C1.94271 5.88534 1.95083 5.81951 1.95202 5.75455C1.98599 5.70025 2.01476 5.64147 2.03741 5.57866C2.08186 5.45543 2.13179 5.34096 2.18637 5.23448C2.2153 5.17803 2.23782 5.11995 2.25421 5.06107C2.29817 5.01955 2.33866 4.97295 2.37482 4.92142C2.44519 4.82116 2.52128 4.72806 2.60263 4.64151C2.64558 4.59582 2.68292 4.54682 2.71469 4.49538C2.76856 4.46778 2.82047 4.43428 2.86957 4.39479C2.96503 4.31803 3.0667 4.24688 3.17436 4.18117C3.23082 4.14672 3.2822 4.10702 3.32828 4.06308C3.39093 4.04941 3.4531 4.02877 3.51379 4.00079C3.63153 3.94651 3.75469 3.89745 3.88287 3.85351C3.94951 3.83067 4.01178 3.80076 4.06914 3.76489C4.13724 3.76417 4.20632 3.75564 4.27531 3.73862C4.40876 3.7057 4.54586 3.67767 4.68601 3.65432C4.75885 3.64219 4.82822 3.62159 4.89328 3.59368C4.96366 3.60391 5.03638 3.60586 5.11031 3.59861C5.25343 3.58458 5.3983 3.57494 5.54421 3.56938C5.62024 3.56649 5.69372 3.5542 5.7636 3.53368C5.83414 3.55276 5.90812 3.56347 5.98446 3.56466C6.13283 3.56698 6.28103 3.57312 6.4283 3.58268C6.5054 3.58769 6.58086 3.58279 6.65347 3.56907C6.72273 3.59535 6.79632 3.61341 6.87324 3.62198C7.02399 3.63877 7.17241 3.6588 7.31756 3.68154C7.3945 3.69359 7.47067 3.69548 7.54475 3.68818C7.61174 3.72079 7.68383 3.74552 7.76011 3.76098C7.91153 3.79169 8.05718 3.82491 8.19578 3.85988C8.26954 3.87848 8.34344 3.88737 8.41617 3.88733C8.47807 3.92493 8.54546 3.95559 8.61764 3.97797C8.7682 4.02464 8.90352 4.07194 9.02167 4.11805C9.08447 4.14256 9.14833 4.15951 9.21225 4.16936C9.25788 4.20785 9.30798 4.24234 9.36229 4.27204C9.41575 4.30127 9.44241 4.32001 9.44988 4.32572C9.49023 4.35657 9.53901 4.39659 9.5964 4.44684C9.65343 4.49677 9.71488 4.53822 9.77926 4.57129C9.81774 4.63595 9.86485 4.69682 9.92057 4.75219C10.0232 4.85419 10.1334 4.96775 10.2501 5.09147C10.3076 5.15239 10.3714 5.20355 10.4395 5.24489C10.4757 5.31677 10.522 5.38496 10.5784 5.44739C10.6843 5.56445 10.7932 5.68673 10.9042 5.81316C10.9605 5.87733 11.0238 5.93159 11.0919 5.97582C11.1264 6.0499 11.1715 6.12049 11.2272 6.18541C11.3332 6.30896 11.4402 6.43494 11.5476 6.56244C11.603 6.62823 11.6657 6.68412 11.7334 6.72994C11.7668 6.8051 11.8108 6.87694 11.8658 6.94321C11.9717 7.07094 12.0772 7.19917 12.1818 7.32703C12.2364 7.39385 12.2985 7.45082 12.3659 7.49771C12.3983 7.57355 12.4415 7.64618 12.4957 7.71336C12.6018 7.84462 12.706 7.97444 12.8077 8.10182C12.8616 8.16934 12.9231 8.22708 12.9899 8.27478C13.0215 8.35102 13.0639 8.42417 13.1174 8.49199C13.2243 8.62741 13.3271 8.75842 13.4248 8.88361C13.478 8.95179 13.5389 9.01026 13.6052 9.05874C13.6359 9.13535 13.6774 9.20901 13.7301 9.27749C13.7827 9.34572 13.8328 9.41109 13.8802 9.47326L14.9277 10.8451L15.4569 9.19757C15.4806 9.12385 15.505 9.04982 15.5303 8.97554C15.5564 8.89886 15.5717 8.82108 15.5772 8.74386C15.622 8.68106 15.6596 8.61144 15.6882 8.53574C15.7428 8.39169 15.8004 8.24708 15.8611 8.10225C15.8923 8.02777 15.913 7.95145 15.9238 7.87499C15.9727 7.81569 16.015 7.7491 16.0488 7.67585C16.1134 7.53613 16.1809 7.39654 16.2516 7.25737C16.2879 7.18574 16.314 7.11152 16.3304 7.03644C16.3833 6.98122 16.4301 6.91832 16.4691 6.8482C16.5436 6.71426 16.6212 6.58101 16.7018 6.4487C16.7433 6.38042 16.775 6.30878 16.797 6.23552C16.8539 6.18491 16.9053 6.12621 16.9496 6.05975C17.0341 5.93285 17.1217 5.8071 17.2123 5.68275C17.2591 5.61854 17.2963 5.55019 17.3242 5.47945C17.3848 5.43409 17.4406 5.38028 17.4901 5.31823C17.5847 5.19959 17.6822 5.0825 17.7829 4.96716C17.8348 4.90766 17.8777 4.84325 17.9116 4.77565C17.9755 4.7361 18.0356 4.6878 18.0902 4.6308C18.1944 4.52177 18.3018 4.41461 18.4122 4.30949C18.4691 4.25531 18.5175 4.19543 18.5574 4.13157C18.6245 4.09833 18.6885 4.05609 18.7479 4.00472C18.8614 3.9065 18.978 3.8104 19.0977 3.71658C19.1593 3.66824 19.2131 3.61344 19.2588 3.55386C19.3286 3.52734 19.3963 3.49159 19.4602 3.44633C19.5823 3.35986 19.7074 3.27568 19.8357 3.19395C19.9017 3.1519 19.9604 3.10265 20.0116 3.04786C20.0836 3.02829 20.1545 2.99935 20.2224 2.96056C20.3522 2.88649 20.485 2.81483 20.6209 2.74575C20.6907 2.71024 20.7541 2.66683 20.8103 2.61714C20.8841 2.60461 20.9575 2.58257 21.029 2.55042C21.0976 2.51953 21.1671 2.48927 21.2373 2.45966C21.3066 2.43043 21.3746 2.40291 21.4414 2.37704C21.5091 2.35085 21.5718 2.31735 21.6291 2.27777C21.6978 2.273 21.767 2.26019 21.8355 2.23873C21.9719 2.19605 22.1021 2.16097 22.2264 2.13279C22.2927 2.11775 22.3556 2.09572 22.4146 2.06763C22.4786 2.07364 22.5443 2.07282 22.6107 2.0645C22.7425 2.04799 22.8659 2.04013 22.9815 2.03967ZM27.4095 10.0611C27.4389 10.0607 27.4687 10.0584 27.4986 10.0541C27.6364 10.0344 27.7749 10.0228 27.9135 10.0185C27.9876 10.0162 28.0587 10.0025 28.1252 9.97904C28.191 10.0053 28.2618 10.0219 28.3361 10.0272C28.4795 10.0373 28.6215 10.0545 28.7612 10.0777C28.8361 10.0901 28.9101 10.0903 28.9813 10.0795C29.0423 10.1184 29.1102 10.1485 29.1839 10.1676C29.3275 10.2047 29.4662 10.2475 29.5987 10.2944C29.6703 10.3197 29.7433 10.3327 29.8152 10.3345C29.8684 10.3832 29.9298 10.4244 29.9986 10.456C30.0564 10.4824 30.112 10.5094 30.1653 10.5366C30.1933 10.5547 30.2266 10.5787 30.2646 10.6099C30.3126 10.6491 30.364 10.681 30.4177 10.7057C30.4446 10.7624 30.4794 10.8165 30.5222 10.8662C30.6001 10.9568 30.6825 11.0641 30.7672 11.1896C30.8086 11.2509 30.8577 11.3038 30.9125 11.3476C30.9266 11.4174 30.9514 11.4863 30.9875 11.5519C31.0532 11.6712 31.1187 11.801 31.1831 11.942C31.2155 12.0128 31.2578 12.0756 31.3077 12.1297C31.3114 12.2039 31.3266 12.2787 31.3546 12.3518C31.4058 12.4857 31.4556 12.6274 31.5036 12.7771C31.5279 12.8531 31.5637 12.9221 31.6083 12.9829C31.6035 13.0586 31.6108 13.1364 31.6314 13.2137C31.6693 13.3559 31.7054 13.5042 31.7394 13.6588C31.7568 13.7379 31.7866 13.811 31.8262 13.8765C31.8146 13.9524 31.8151 14.0316 31.8293 14.1115C31.8557 14.2596 31.8802 14.4128 31.9025 14.5711C31.9138 14.6519 31.9382 14.7276 31.973 14.7964C31.9559 14.8718 31.9507 14.9514 31.9594 15.0326C31.9755 15.1837 31.9896 15.339 32.0017 15.4985C32.0079 15.5808 32.0276 15.6588 32.0586 15.7303C32.0365 15.8052 32.0263 15.8851 32.0302 15.9676C32.0373 16.1211 32.0425 16.2782 32.0457 16.4389C32.0473 16.5219 32.063 16.6013 32.0902 16.6749C32.064 16.7489 32.0495 16.8286 32.0491 16.9117C32.0483 17.0664 32.0457 17.2243 32.0411 17.3854C32.0387 17.4687 32.0506 17.5491 32.0744 17.6242C32.0447 17.6972 32.0265 17.7764 32.0223 17.8597C32.0145 18.015 32.0049 18.1732 31.9934 18.3342C31.9875 18.4177 31.996 18.4988 32.0168 18.5751C31.984 18.647 31.9625 18.7257 31.955 18.809C31.9478 18.8884 31.9402 18.9683 31.9321 19.049L31.6853 21.5134L33.1945 19.5601C33.2401 19.5009 33.2879 19.4404 33.3375 19.3786C33.3887 19.3149 33.4272 19.245 33.4535 19.172C33.5203 19.1334 33.582 19.0829 33.6355 19.0209C33.7343 18.9062 33.8384 18.7891 33.9474 18.6704C34.0031 18.6097 34.0464 18.5419 34.0773 18.4701C34.147 18.4355 34.2121 18.3888 34.2697 18.3298C34.3771 18.2196 34.4882 18.109 34.6025 17.9986C34.6617 17.9415 34.7089 17.8765 34.7441 17.8068C34.8156 17.7766 34.8833 17.734 34.9442 17.6788C35.0588 17.5749 35.176 17.4719 35.2955 17.3704C35.3578 17.3175 35.4089 17.256 35.4483 17.189C35.5212 17.1638 35.5912 17.1261 35.6553 17.0754C35.7764 16.9796 35.8994 16.8859 36.0238 16.795C36.0891 16.7472 36.144 16.6903 36.1879 16.6272C36.2617 16.6078 36.3336 16.576 36.4008 16.5312C36.5283 16.4459 36.6568 16.364 36.7862 16.286C36.8543 16.2449 36.9131 16.1941 36.9619 16.1363C37.0359 16.1242 37.1093 16.0999 37.1792 16.0626C37.3124 15.9915 37.4458 15.9252 37.5791 15.8641C37.6497 15.8318 37.7124 15.7892 37.7664 15.739C37.8394 15.736 37.9132 15.7214 37.9854 15.6942C38.1228 15.6424 38.2594 15.5969 38.395 15.5579C38.4667 15.5373 38.5327 15.5062 38.5917 15.4668C38.6615 15.4752 38.7337 15.4733 38.8065 15.4595C38.9445 15.4335 39.0808 15.415 39.2151 15.4044C39.2858 15.3988 39.3533 15.3829 39.4162 15.3582C39.4795 15.3803 39.547 15.3936 39.6173 15.3967C39.7498 15.4024 39.8803 15.4166 40.0088 15.4397C40.076 15.4518 40.1428 15.4538 40.2075 15.4469C40.2612 15.4837 40.3208 15.5136 40.3856 15.535C40.5068 15.5749 40.6272 15.624 40.7467 15.683C40.8086 15.7136 40.8728 15.7343 40.9375 15.7456C40.9799 15.7966 41.0303 15.8425 41.088 15.8812C41.143 15.9181 41.1979 15.9575 41.2528 15.9994C41.3056 16.0398 41.3565 16.0809 41.4056 16.1226C41.4567 16.1661 41.5122 16.201 41.5703 16.2275C41.6 16.2841 41.6378 16.3375 41.6837 16.3861C41.7723 16.4799 41.8534 16.5766 41.9274 16.6758C41.9667 16.7285 42.0119 16.7742 42.0613 16.8126C42.0771 16.8734 42.1011 16.9332 42.1339 16.9902C42.1967 17.0996 42.2526 17.2122 42.3018 17.3278C42.3278 17.3889 42.3612 17.4444 42.4006 17.4938C42.4017 17.5575 42.4113 17.622 42.4302 17.6859C42.4663 17.8079 42.4959 17.933 42.5193 18.0612C42.5315 18.1285 42.5527 18.1918 42.5814 18.2501C42.5686 18.3144 42.5645 18.3814 42.57 18.45C42.5807 18.5802 42.5854 18.7131 42.5843 18.8485C42.5837 18.9192 42.5933 18.9875 42.6117 19.0522C42.5869 19.115 42.5705 19.1824 42.5642 19.2531C42.5522 19.3872 42.5349 19.5232 42.5124 19.6607C42.5007 19.7324 42.5 19.8033 42.509 19.8718C42.4745 19.9317 42.448 19.9977 42.4315 20.0686C42.4003 20.2031 42.3644 20.3385 42.3239 20.4746C42.3029 20.5456 42.2932 20.6172 42.294 20.6876C42.2517 20.7437 42.217 20.8072 42.192 20.877C42.1446 21.0093 42.0932 21.1419 42.0379 21.2745C42.009 21.3436 41.9918 21.4148 41.9852 21.4857C41.9369 21.5378 41.8955 21.5981 41.8633 21.6658C41.8022 21.7944 41.7377 21.9226 41.6698 22.0503C41.6344 22.117 41.6105 22.1868 41.5975 22.2574C41.5442 22.3052 41.4972 22.3619 41.4589 22.4271C41.3861 22.5508 41.3103 22.6737 41.2316 22.7955C41.1905 22.8592 41.1607 22.9271 41.1418 22.9967C41.0845 23.04 41.0328 23.0928 40.9891 23.1548C40.906 23.2728 40.8202 23.3894 40.7321 23.5045C40.6859 23.5648 40.6508 23.6302 40.6264 23.6982C40.5658 23.7368 40.51 23.7854 40.4615 23.8438C40.3691 23.9551 40.2745 24.0646 40.1779 24.1721C40.1272 24.2285 40.0871 24.2909 40.0574 24.3567C39.994 24.3903 39.9347 24.4343 39.8818 24.4887C39.7809 24.5923 39.6782 24.6937 39.5738 24.7927C39.5189 24.8447 39.474 24.9035 39.4393 24.9665C39.3736 24.9948 39.3111 25.0337 39.2542 25.0833C39.1454 25.1781 39.0351 25.2702 38.9235 25.3593C38.8648 25.4062 38.8154 25.4606 38.7757 25.5201C38.7082 25.5425 38.643 25.5755 38.5823 25.6196C38.4662 25.7041 38.3491 25.7852 38.231 25.8628C38.1688 25.9037 38.115 25.9528 38.0703 26.0077C38.0016 26.0234 37.9341 26.0497 37.8701 26.0873C37.7475 26.1594 37.6242 26.2275 37.5004 26.2914C37.4351 26.3252 37.3773 26.3677 37.3275 26.4169C37.2585 26.4249 37.1895 26.4434 37.1226 26.4732C37.059 26.5015 36.9954 26.5287 36.9318 26.5547C36.8584 26.5847 36.7847 26.6149 36.7108 26.6452C36.6331 26.677 36.564 26.7212 36.5049 26.7746C36.4257 26.778 36.3457 26.7951 36.268 26.827C36.1213 26.8874 35.9739 26.9483 35.8259 27.0094C35.7484 27.0414 35.6795 27.0858 35.6206 27.1393C35.5415 27.1429 35.4616 27.1602 35.3841 27.1923C35.2371 27.2533 35.0898 27.3144 34.9424 27.3758C34.865 27.408 34.7962 27.4525 34.7375 27.5061C34.6583 27.51 34.5785 27.5274 34.5011 27.5597C34.3539 27.6211 34.2068 27.6826 34.0599 27.7441C33.9826 27.7765 33.9139 27.8211 33.8552 27.8749C33.7761 27.8789 33.6963 27.8964 33.619 27.9289C33.4715 27.9908 33.3246 28.0525 33.1782 28.1141C33.101 28.1466 33.0325 28.1913 32.9739 28.2451C32.8949 28.2493 32.8152 28.267 32.7379 28.2996C32.5902 28.3619 32.4432 28.4239 32.2975 28.4855C32.2202 28.5182 32.1517 28.5631 32.0932 28.617C32.0141 28.6213 31.9343 28.6392 31.8571 28.6719C31.709 28.7346 31.5623 28.7968 31.4173 28.8584C31.3401 28.8912 31.2717 28.9361 31.2133 28.9901C31.1343 28.9945 31.0546 29.0125 30.9774 29.0453C30.8286 29.1086 30.6818 29.1712 30.5374 29.2327C30.4604 29.2655 30.3922 29.3105 30.334 29.3644C30.2551 29.369 30.1756 29.3871 30.0987 29.4199C29.9487 29.484 29.8018 29.5468 29.6582 29.6083C29.5813 29.6412 29.5131 29.6863 29.455 29.7403C29.3761 29.745 29.2967 29.7632 29.2198 29.7961C29.0684 29.8611 28.9216 29.9242 28.7798 29.9851C28.7027 30.0183 28.6344 30.0636 28.5763 30.1179C28.4971 30.1227 28.4175 30.141 28.3404 30.1743C28.186 30.2408 28.0394 30.3041 27.9013 30.3638C27.8787 30.3735 27.8569 30.3843 27.8359 30.3961C27.8291 30.3804 27.8216 30.3649 27.8135 30.3495C27.7443 30.218 27.6736 30.081 27.6016 29.9389C27.565 29.8667 27.5179 29.8035 27.4632 29.7502C27.4534 29.674 27.4311 29.5981 27.3955 29.5254C27.3292 29.3902 27.2622 29.2513 27.1945 29.1087C27.1597 29.0354 27.1142 28.9709 27.0607 28.916C27.0527 28.8395 27.0323 28.7629 26.9984 28.6892C26.935 28.5515 26.8713 28.4109 26.8073 28.2677C26.7743 28.1936 26.7302 28.128 26.678 28.0719C26.6718 27.9952 26.6532 27.9182 26.6209 27.8437C26.5603 27.7038 26.4997 27.5617 26.4391 27.4175C26.4076 27.3426 26.365 27.2759 26.3139 27.2186C26.3094 27.1416 26.2925 27.0642 26.2618 26.9889C26.204 26.847 26.1464 26.7034 26.0891 26.5581C26.0593 26.4824 26.018 26.4147 25.9682 26.3562C25.9654 26.2791 25.9502 26.2011 25.9211 26.1251C25.8663 25.9815 25.8119 25.8365 25.758 25.6902C25.7299 25.6141 25.6904 25.5457 25.6421 25.4862C25.641 25.4093 25.6275 25.3313 25.6003 25.2549C25.5488 25.1102 25.4978 24.9644 25.4475 24.8175C25.4212 24.7407 25.3832 24.6713 25.3362 24.6107C25.3369 24.5337 25.3253 24.4553 25.2999 24.3782C25.2517 24.2319 25.2043 24.0849 25.1576 23.937C25.1332 23.8597 25.097 23.7895 25.0516 23.7277C25.0542 23.6509 25.0445 23.5724 25.0211 23.4947C24.9767 23.3475 24.9331 23.1996 24.8905 23.0512C24.8681 22.9734 24.8338 22.9023 24.7901 22.8395C24.7947 22.7629 24.7872 22.6842 24.7659 22.606C24.7254 22.4576 24.686 22.3087 24.6476 22.1595C24.6275 22.0812 24.5952 22.0093 24.5534 21.9453C24.5603 21.869 24.555 21.7903 24.536 21.7118C24.5 21.5623 24.4651 21.4126 24.4314 21.2628C24.4137 21.1841 24.3838 21.1114 24.3441 21.0463C24.3533 20.9704 24.3505 20.8917 24.3341 20.8128C24.3029 20.6624 24.2731 20.5121 24.2446 20.3618C24.2296 20.2828 24.2023 20.2093 24.165 20.1431C24.1768 20.0678 24.1768 19.9894 24.1632 19.9102C24.1375 19.759 24.1132 19.608 24.0905 19.4573C24.0785 19.378 24.054 19.3037 24.0194 19.2362C24.0341 19.1617 24.0372 19.0836 24.0268 19.0041C24.0072 18.8525 23.9892 18.7013 23.973 18.5507C23.9645 18.4714 23.9434 18.3965 23.9119 18.3279C23.9158 18.312 23.9191 18.2958 23.9219 18.2795C23.9619 18.238 23.9985 18.1922 24.0311 18.142C24.1181 18.008 24.2037 17.8747 24.2878 17.7422C24.3319 17.6729 24.3655 17.5998 24.389 17.5249C24.4461 17.4714 24.4973 17.4096 24.5407 17.3398C24.6252 17.2039 24.7081 17.0691 24.7894 16.9353C24.832 16.8653 24.8642 16.7917 24.8862 16.7164C24.9422 16.662 24.992 16.5992 25.034 16.5287C25.1159 16.391 25.196 16.2547 25.2744 16.1199C25.3156 16.0491 25.3462 15.9749 25.3668 15.8993C25.4216 15.8437 25.4702 15.78 25.5106 15.7087C25.5902 15.5685 25.6677 15.4304 25.743 15.2943C25.7829 15.2223 25.8121 15.1472 25.8311 15.0708C25.885 15.0139 25.9324 14.9489 25.9715 14.8764C26.0488 14.7333 26.1234 14.5929 26.1954 14.4557C26.2337 14.3827 26.2612 14.3069 26.2784 14.23C26.331 14.1717 26.3769 14.1054 26.4143 14.0319C26.4893 13.8844 26.5609 13.741 26.629 13.6022C26.6657 13.5272 26.6913 13.4497 26.7065 13.3714C26.7581 13.3108 26.8026 13.2424 26.8382 13.1667C26.8728 13.093 26.9063 13.0209 26.9386 12.9503L26.9815 12.8567L27.0026 12.7558C27.0195 12.6752 27.036 12.5937 27.0523 12.5111C27.0692 12.4255 27.0737 12.3403 27.0669 12.2574C27.103 12.1827 27.1295 12.1018 27.1446 12.0159C27.173 11.8535 27.2004 11.6881 27.2264 11.52C27.2397 11.4341 27.2406 11.3491 27.2306 11.2669C27.2635 11.191 27.2867 11.1093 27.2983 11.0232C27.3204 10.8592 27.3413 10.6931 27.3607 10.5253C27.3706 10.439 27.3683 10.3541 27.3552 10.2723C27.3811 10.2057 27.3996 10.135 27.4095 10.0611ZM25.45 11.1808C25.4458 11.1997 25.4422 11.2189 25.4392 11.2383C25.4151 11.3943 25.3898 11.5476 25.3635 11.6978C25.3496 11.777 25.3463 11.8556 25.3525 11.9322C25.3192 12.0012 25.294 12.0756 25.2784 12.1544C25.2703 12.1958 25.262 12.2369 25.2537 12.2778C25.2374 12.3128 25.2208 12.3484 25.2039 12.3845C25.1707 12.4552 25.1472 12.528 25.133 12.6014C25.0846 12.6582 25.0424 12.722 25.0079 12.7923C24.9438 12.923 24.8761 13.0586 24.805 13.1986C24.7695 13.2684 24.7437 13.3407 24.7273 13.4139C24.6772 13.4694 24.6332 13.5321 24.5968 13.6016C24.5282 13.7324 24.4569 13.8665 24.383 14.0033C24.3456 14.0727 24.318 14.1448 24.2998 14.218C24.2481 14.2726 24.2024 14.3346 24.1642 14.4035C24.1031 14.5139 24.0404 14.6258 23.9763 14.7392C23.9758 14.7362 23.9753 14.7332 23.9748 14.7303C24.0093 14.6656 24.0345 14.5945 24.0481 14.5184C24.0611 14.4461 24.0748 14.3744 24.0892 14.3031C24.1053 14.224 24.1218 14.1463 24.1389 14.0701C24.1569 13.99 24.1607 13.91 24.1522 13.8328C24.1956 13.7689 24.2293 13.6967 24.2508 13.6177C24.2925 13.464 24.3366 13.3166 24.3827 13.1755C24.4077 13.099 24.4192 13.0214 24.4186 12.9452C24.4672 12.8872 24.5075 12.8204 24.5367 12.7459C24.5937 12.6007 24.6531 12.4631 24.7144 12.3327C24.7476 12.2623 24.7684 12.1891 24.7776 12.1157C24.8317 12.0663 24.8791 12.0076 24.9173 11.9403C24.9921 11.8084 25.0692 11.6854 25.148 11.5708C25.1908 11.5087 25.2224 11.4422 25.2433 11.3737C25.3032 11.3359 25.3585 11.2883 25.4067 11.2312C25.4211 11.2142 25.4355 11.1974 25.45 11.1808Z" fill="#886788"/>
<path d="M54.52 27.48C54.2427 27.48 54.0293 27.3733 53.88 27.16C53.752 26.968 53.688 26.7227 53.688 26.424C53.688 21.9653 53.6027 18.2 53.432 15.128C52.92 15.0427 52.5573 15 52.344 15C51.4693 15 50.84 15.0747 50.456 15.224C50.456 16.4187 50.552 18.2213 50.744 20.632C50.9147 23.192 51 25.0053 51 26.072C51 26.2853 50.936 26.488 50.808 26.68C50.68 26.8507 50.52 26.936 50.328 26.936C50.0507 26.936 49.7947 26.4453 49.56 25.464C49.2187 24.0133 48.9413 20.9733 48.728 16.344C48.5787 13.208 48.504 9.83733 48.504 6.232C48.4827 5.57067 48.472 4.632 48.472 3.416C48.472 3.032 48.6533 2.84 49.016 2.84C49.2293 2.84 49.4427 2.89333 49.656 3C49.8907 3.10666 50.0613 3.224 50.168 3.352C50.0827 4.03467 50.04 4.83467 50.04 5.752C50.04 6.648 50.0827 7.736 50.168 9.016C50.232 10.488 50.264 11.5973 50.264 12.344V12.92C50.2427 13.0907 50.232 13.2933 50.232 13.528C50.232 13.7413 50.2533 14.0187 50.296 14.36C50.424 14.36 50.6373 14.3493 50.936 14.328C51.2347 14.3067 51.5333 14.2747 51.832 14.232C52.536 14.168 53.0587 14.136 53.4 14.136C53.4 12.28 53.3787 10.5627 53.336 8.984L53.272 3.64V2.776C53.5493 2.776 53.7947 2.82933 54.008 2.936C54.2213 3.02133 54.3813 3.13867 54.488 3.288C54.68 3.52267 54.7973 3.928 54.84 4.504V5.24C54.84 7.07467 54.9467 10.584 55.16 15.768C55.352 20.4613 55.448 23.9813 55.448 26.328C55.448 26.6267 55.352 26.8933 55.16 27.128C54.9893 27.3627 54.776 27.48 54.52 27.48ZM60.9865 27.416C60.7092 27.416 60.4532 27.32 60.2185 27.128C60.0052 26.936 59.8878 26.7013 59.8665 26.424V25.592V24.952C59.8452 24.76 59.8345 24.536 59.8345 24.28C59.8345 23.832 59.8025 23.1493 59.7385 22.232L59.6745 20.184C59.6745 19.1387 59.7065 17.5813 59.7705 15.512C59.8558 13.656 59.8985 12.0987 59.8985 10.84C59.8985 10.5413 59.8665 10.0933 59.8025 9.496C59.7385 8.87733 59.7065 8.42933 59.7065 8.152C59.7065 6.63733 60.1545 5.88 61.0505 5.88C61.7545 5.88 62.5652 6.01867 63.4825 6.296C64.4212 6.57333 64.8905 6.904 64.8905 7.288C64.8905 7.50133 64.7945 7.704 64.6025 7.896C64.4318 8.06667 64.2185 8.20533 63.9625 8.312C63.0665 7.992 62.2558 7.77867 61.5305 7.672C61.5518 7.992 61.5625 8.45067 61.5625 9.048C61.5625 9.90133 61.5518 10.6693 61.5305 11.352C61.4665 12.376 61.4345 13.144 61.4345 13.656L61.5305 14.168L62.0425 14.136C62.2132 14.1147 62.4265 14.104 62.6825 14.104C63.7065 14.104 64.2185 14.4027 64.2185 15C64.2185 15.2347 64.1225 15.4373 63.9305 15.608C63.7385 15.7573 63.4932 15.832 63.1945 15.832C62.8105 15.832 62.5118 15.8107 62.2985 15.768H61.4985C61.5412 16.3227 61.5625 17.1333 61.5625 18.2C61.5625 19.2667 61.5518 20.2267 61.5305 21.08C61.4665 22.3813 61.4345 23.352 61.4345 23.992C61.4345 25.1867 61.4558 25.784 61.4985 25.784L62.5545 25.752C62.9172 25.7307 63.3545 25.72 63.8665 25.72C64.6772 25.72 65.0825 25.976 65.0825 26.488C65.0825 26.7867 64.9438 27.0107 64.6665 27.16C64.4105 27.3307 64.0905 27.416 63.7065 27.416H60.9865ZM74.9123 27.288C74.4216 27.288 74.0589 27.2133 73.8243 27.064C73.5896 26.9147 73.4723 26.6373 73.4723 26.232C73.4723 25.592 73.3656 24.504 73.1523 22.968L73.0243 22.296L69.8563 21.816C69.7283 22.3067 69.5469 23.2987 69.3123 24.792C69.1843 25.8373 68.9816 26.5307 68.7043 26.872C68.5549 27.064 68.3416 27.16 68.0643 27.16C67.8083 27.16 67.5736 27.0853 67.3603 26.936C67.1469 26.7653 67.0403 26.5627 67.0403 26.328L67.1043 26.168L67.1363 26.04C68.5443 20.5573 69.6109 15.1493 70.3363 9.816C70.3363 9.73067 70.3469 9.592 70.3683 9.4C70.3896 9.18667 70.4109 8.888 70.4323 8.504C70.4963 7.71467 70.5603 7.08533 70.6243 6.616C70.7096 6.14667 70.8376 5.79467 71.0083 5.56H72.0963C72.3949 5.56 72.6509 5.63467 72.8643 5.784C73.0776 5.912 73.1843 6.104 73.1843 6.36C73.1843 7.98133 73.4083 10.392 73.8563 13.592C74.2829 16.8773 74.4963 19.1813 74.4963 20.504C74.4963 20.632 74.5496 20.9627 74.6562 21.496C74.7629 21.9867 74.8163 22.3067 74.8163 22.456C74.8163 22.6053 74.9229 23.2453 75.1363 24.376C75.3283 25.4 75.4243 26.0613 75.4243 26.36V26.392C75.4243 26.8613 75.2536 27.16 74.9123 27.288ZM72.8003 21.144C72.7363 20.824 72.7043 20.4293 72.7043 19.96C72.7043 18.04 72.5336 15.5867 72.1923 12.6L71.8723 9.272C70.9549 14.2853 70.3256 18.072 69.9843 20.632C70.3043 20.8453 71.2429 21.016 72.8003 21.144ZM79.1948 27.192C78.6401 27.192 78.3628 25.7947 78.3628 23L78.4268 17.944C78.4481 16.4507 78.4588 14.776 78.4588 12.92C78.4588 12.2373 78.3948 11.1813 78.2668 9.752C78.1601 8.19467 78.1068 7.24533 78.1068 6.904C78.1068 6.62667 78.2241 6.38133 78.4588 6.168C78.6934 5.95467 78.9494 5.848 79.2268 5.848C79.9734 5.848 80.6881 6.01867 81.3708 6.36C82.0748 6.68 82.6934 7.13866 83.2268 7.736C84.3574 9.03733 85.1041 10.4667 85.4668 12.024C85.6588 12.8133 85.7548 13.592 85.7548 14.36C85.7548 14.6373 85.7441 14.8933 85.7228 15.128L85.6908 15.992V17.752C85.6908 19.1173 85.6481 20.1947 85.5628 20.984C85.4348 22.0507 85.1894 23 84.8268 23.832C84.4001 24.728 83.7814 25.528 82.9708 26.232C82.5868 26.552 82.0961 26.872 81.4988 27.192H79.1948ZM80.6028 25.56C81.0294 25.56 81.4241 25.4533 81.7868 25.24C82.1494 25.0053 82.4588 24.696 82.7148 24.312C82.9281 23.9707 83.1201 23.544 83.2908 23.032C83.4828 22.4987 83.6214 21.9867 83.7068 21.496C83.8988 20.536 84.0161 19.5547 84.0588 18.552C84.0801 18.296 84.0908 17.9227 84.0908 17.432C84.0908 10.9893 82.8428 7.62933 80.3468 7.352C80.1974 8.312 80.1228 9.42133 80.1228 10.68C80.1228 12.024 80.2081 14.3707 80.3788 17.72C80.5281 20.6853 80.6028 23.0427 80.6028 24.792V25.56ZM90.8333 26.968C88.9773 26.968 88.0493 26.648 88.0493 26.008C88.0493 25.496 88.3799 25.24 89.0413 25.24H89.3932L89.7133 25.272C89.8839 25.272 90.0013 25.2187 90.0653 25.112C90.1293 25.0053 90.1613 24.8133 90.1613 24.536C90.1613 24.1733 90.1399 23.608 90.0973 22.84C90.0333 22.328 89.9586 21.4107 89.8733 20.088C89.6813 16.824 89.5853 14.36 89.5853 12.696C89.5853 12.0987 89.5959 11.5547 89.6173 11.064L89.6493 9.432C89.6493 8.728 89.6173 8.14133 89.5533 7.672C89.2119 7.75733 88.9666 7.8 88.8173 7.8C88.3053 7.8 88.0493 7.544 88.0493 7.032C88.0493 6.776 88.2093 6.552 88.5293 6.36C88.8493 6.168 89.2546 6.02933 89.7453 5.944C90.5986 5.77333 91.3559 5.688 92.0173 5.688C92.2733 5.688 92.4866 5.784 92.6573 5.976C92.8493 6.14667 92.9453 6.34933 92.9453 6.584C92.9453 6.81867 92.8706 7.02133 92.7213 7.192C92.5933 7.36267 92.4226 7.448 92.2093 7.448C92.0813 7.448 91.9746 7.43733 91.8893 7.416H91.6333C91.4199 7.416 91.2599 7.46933 91.1533 7.576C91.0679 7.66133 91.0253 7.832 91.0253 8.088C91.0253 10.1573 91.1533 13.272 91.4093 17.432C91.4519 18.2 91.5373 19.3307 91.6653 20.824C91.7719 21.8053 91.8253 22.808 91.8253 23.832V25.048C91.9533 25.0267 92.1666 25.016 92.4653 25.016C93.3613 25.016 93.8093 25.3893 93.8093 26.136V26.328L93.0093 26.872C92.9879 26.872 92.9133 26.8827 92.7853 26.904C92.6786 26.904 92.4653 26.904 92.1453 26.904C91.4626 26.9467 91.0253 26.968 90.8333 26.968ZM105.188 27.096C104.932 27.096 104.74 27.032 104.612 26.904C104.484 26.7547 104.388 26.5093 104.324 26.168L104.132 25.56V25.496V25.4C104.132 24.696 103.396 22.296 101.924 18.2C100.473 14.104 99.332 11.0747 98.5 9.112V25.208L98.628 25.432C98.6493 25.4747 98.692 25.5493 98.756 25.656C98.82 25.7627 98.852 25.8693 98.852 25.976C98.852 26.2533 98.756 26.488 98.564 26.68C98.372 26.872 98.1373 26.968 97.86 26.968C97.1773 26.968 96.836 26.3173 96.836 25.016L96.804 19.544C96.7827 17.9013 96.772 16.0667 96.772 14.04C96.772 13.3573 96.804 12.3653 96.868 11.064C96.932 9.72 96.964 8.728 96.964 8.088C96.964 7.08533 97.348 6.296 98.116 5.72V5.912C98.244 5.86933 98.3293 5.848 98.372 5.848C98.8627 5.848 99.4813 6.70133 100.228 8.408C100.825 9.77333 101.359 11.2133 101.828 12.728C102.319 14.2427 102.959 16.3973 103.748 19.192L104.068 20.344C104.559 22.072 104.932 23.3093 105.188 24.056C105.615 19.4693 105.828 14.0507 105.828 7.8V7.384C105.807 7.256 105.796 7.11733 105.796 6.968C105.796 6.328 106.052 6.008 106.564 6.008C106.863 6.008 107.087 6.12533 107.236 6.36C107.407 6.59467 107.492 6.89333 107.492 7.256V9.656C107.449 12.9413 107.321 16.504 107.108 20.344C106.895 24.184 106.639 26.3493 106.34 26.84C105.721 27.0107 105.337 27.096 105.188 27.096ZM115.925 27.256C115.327 27.256 114.783 27.1493 114.293 26.936C113.802 26.7013 113.386 26.4027 113.045 26.04C112.767 25.7413 112.511 25.304 112.277 24.728C112.042 24.152 111.871 23.5973 111.765 23.064C111.658 22.6587 111.573 22.072 111.509 21.304C111.445 20.536 111.402 19.8747 111.381 19.32V17.464V16.184C111.381 14.9467 111.402 13.9333 111.445 13.144C111.487 12.184 111.626 11.1707 111.861 10.104C112.053 9.144 112.383 8.30133 112.853 7.576C113.301 6.85067 113.93 6.34933 114.741 6.072C115.125 5.92267 115.573 5.848 116.085 5.848C117.002 5.848 117.461 6.11467 117.461 6.648C117.461 6.904 117.354 7.11733 117.141 7.288C116.949 7.43733 116.714 7.512 116.437 7.512C116.309 7.512 116.191 7.50133 116.085 7.48C115.999 7.45867 115.893 7.448 115.765 7.448C115.402 7.448 115.082 7.64 114.805 8.024C114.527 8.408 114.293 8.94133 114.101 9.624C113.759 10.9467 113.525 12.3867 113.397 13.944C113.311 15.3947 113.269 16.472 113.269 17.176C113.269 17.9013 113.301 18.8933 113.365 20.152C113.45 21.3253 113.631 22.3493 113.909 23.224C114.058 23.736 114.229 24.152 114.421 24.472C114.634 24.7707 114.901 25.0267 115.221 25.24C115.583 25.4747 115.957 25.592 116.341 25.592C117.365 25.592 117.877 23.8853 117.877 20.472V19C117.727 18.936 117.482 18.904 117.141 18.904H116.853H116.501C115.754 18.904 115.381 18.6587 115.381 18.168C115.381 17.8693 115.477 17.6453 115.669 17.496C115.882 17.3253 116.149 17.24 116.469 17.24V17.272H116.917C118.837 17.272 119.797 17.6027 119.797 18.264C119.797 18.456 119.743 18.84 119.637 19.416C119.509 19.928 119.445 20.312 119.445 20.568C119.445 20.9307 119.477 21.496 119.541 22.264L119.605 23.96C119.605 24.984 119.242 25.7947 118.517 26.392C117.813 26.968 116.949 27.256 115.925 27.256Z" fill="#886788"/>
</svg>
