<svg width="40" height="40" viewBox="0 0 40 40" fill="none" xmlns="http://www.w3.org/2000/svg">
<circle cx="20" cy="20" r="20" fill="#886788"/>
<g clip-path="url(#clip0_1_22)">
<path d="M24.563 16.6417C26.0951 17.7461 27.9722 18.3959 29.9994 18.3959V14.4624C29.6157 14.4625 29.2331 14.4221 28.8577 14.3419V17.4381C26.8306 17.4381 24.9538 16.7884 23.4213 15.6841V23.7113C23.4213 27.727 20.1929 30.9821 16.2108 30.9821C14.7249 30.9821 13.3439 30.5291 12.1967 29.7523C13.506 31.1023 15.3321 31.9397 17.3522 31.9397C21.3346 31.9397 24.5631 28.6847 24.5631 24.6688V16.6417H24.563ZM25.9714 12.6732C25.1884 11.8106 24.6742 10.6959 24.563 9.46342V8.95752H23.481C23.7534 10.5239 24.6823 11.8621 25.9713 12.6732H25.9714ZM14.7153 26.6708C14.2779 26.0925 14.0414 25.3848 14.0424 24.6573C14.0424 22.8207 15.5191 21.3316 17.3409 21.3316C17.6804 21.3314 18.0178 21.384 18.3415 21.4874V17.4659C17.9633 17.4137 17.5817 17.3914 17.2002 17.3996V20.5297C16.8765 20.4262 16.5388 20.3737 16.1992 20.374C14.3775 20.374 12.9009 21.863 12.9009 23.6998C12.9009 24.9986 13.6389 26.1231 14.7153 26.6708Z" fill="#FF004F"/>
<path d="M23.4213 15.684C24.9539 16.7883 26.8305 17.438 28.8577 17.438V14.3418C27.7261 14.0987 26.7245 13.5025 25.9713 12.6732C24.6822 11.862 23.7534 10.5238 23.481 8.95752H20.6392V24.6687C20.6327 26.5003 19.1586 27.9833 17.3407 27.9833C16.2696 27.9833 15.3179 27.4685 14.7152 26.6708C13.6389 26.1231 12.9008 24.9985 12.9008 23.6999C12.9008 21.8632 14.3774 20.3741 16.1991 20.3741C16.5482 20.3741 16.8846 20.4289 17.2001 20.5298V17.3997C13.2879 17.4812 10.1416 20.7045 10.1416 24.6687C10.1416 26.6477 10.9251 28.4416 12.1967 29.7524C13.3439 30.5291 14.7249 30.9822 16.2108 30.9822C20.1931 30.9822 23.4214 27.7269 23.4214 23.7113V15.6841H23.4213V15.684Z" fill="black"/>
<path d="M28.8577 14.3418V13.5048C27.8373 13.5063 26.8371 13.2182 25.9714 12.6733C26.7377 13.5193 27.7468 14.1026 28.8577 14.342V14.3418ZM23.481 8.95752C23.455 8.80786 23.4351 8.6572 23.4213 8.5059V8H19.4974V23.7113C19.4911 25.5428 18.017 27.0258 16.1991 27.0258C15.6837 27.0266 15.1753 26.905 14.7151 26.671C15.3178 27.4686 16.2695 27.9833 17.3407 27.9833C19.1585 27.9833 20.6328 26.5004 20.6392 24.6688V8.9576H23.481V8.95752ZM17.2003 17.3997V16.5085C16.8725 16.4633 16.5419 16.4407 16.211 16.4408C12.2283 16.4408 9 19.696 9 23.7113C9 26.2287 10.2688 28.4473 12.1968 29.7524C10.9252 28.4416 10.1417 26.6476 10.1417 24.6687C10.1417 20.7046 13.2879 17.4813 17.2003 17.3998V17.3997Z" fill="#00F2EA"/>
</g>
<defs>
<clipPath id="clip0_1_22">
<rect width="21" height="24" fill="white" transform="translate(9 8)"/>
</clipPath>
</defs>
</svg>
