<svg width="28" height="26" viewBox="0 0 28 26" fill="none" xmlns="http://www.w3.org/2000/svg">
<path fill-rule="evenodd" clip-rule="evenodd" d="M19.4299 0.23466C18.0254 0.171905 17.5776 0.157959 13.9999 0.157959C10.4223 0.157959 9.97449 0.173067 8.57121 0.23466C7.16793 0.296253 6.21006 0.513573 5.37192 0.828512C4.49427 1.15042 3.69804 1.65363 3.03951 2.30443C2.369 2.94244 1.85175 3.7141 1.52128 4.56711C1.19561 5.3806 0.972904 6.31031 0.908247 7.67001C0.843592 9.03552 0.829224 9.47016 0.829224 12.9415C0.829224 16.4139 0.84479 16.8486 0.908247 18.2118C0.971706 19.5715 1.19561 20.5012 1.52128 21.3147C1.85176 22.1678 2.36986 22.9407 3.03951 23.5797C3.69804 24.2305 4.49427 24.7325 5.37192 25.0533C6.21006 25.3694 7.16793 25.5855 8.56882 25.6483C9.97449 25.711 10.4223 25.725 13.9999 25.725C17.5776 25.725 18.0254 25.7099 19.4299 25.6483C20.8308 25.5867 21.7886 25.3694 22.6268 25.0533C23.5057 24.7325 24.302 24.2296 24.9604 23.5797C25.6304 22.9413 26.1489 22.1687 26.4798 21.3158C26.8043 20.5023 27.027 19.5726 27.0916 18.2129C27.1563 16.8474 27.1707 16.4128 27.1707 12.9415C27.1707 9.469 27.1551 9.03436 27.0916 7.67234C27.0282 6.31031 26.8043 5.3806 26.4798 4.56711C26.1485 3.71419 25.6295 2.94164 24.9592 2.30326C24.3018 1.65305 23.5062 1.14978 22.628 0.828512C21.7898 0.513573 20.8319 0.297415 19.4311 0.23466H19.4299ZM8.67777 2.53569C10.0667 2.4741 10.4834 2.46131 13.9999 2.46131C17.5165 2.46131 17.9332 2.4741 19.3221 2.53569C20.6068 2.59264 21.3037 2.80066 21.7683 2.97614C22.3825 3.20857 22.8219 3.48399 23.2829 3.93142C23.7199 4.34404 24.0562 4.84635 24.2671 5.40152C24.4479 5.85243 24.6622 6.52879 24.7209 7.77577C24.7844 9.12384 24.7975 9.52827 24.7975 12.9415C24.7975 16.3547 24.7844 16.7591 24.7209 18.1072C24.6622 19.3541 24.4479 20.0305 24.2671 20.4814C24.0564 21.0357 23.7199 21.539 23.2829 21.9515C22.8578 22.3757 22.3394 22.7023 21.7683 22.9068C21.3037 23.0823 20.6068 23.2903 19.3221 23.3472C17.9332 23.4088 17.5177 23.4216 13.9999 23.4216C10.4822 23.4216 10.0667 23.4088 8.67777 23.3472C7.39303 23.2903 6.69618 23.0823 6.23161 22.9068C5.61738 22.6744 5.17795 22.3989 4.71698 21.9515C4.27995 21.539 3.9435 21.0357 3.73277 20.4814C3.55197 20.0305 3.33765 19.3541 3.27898 18.1072C3.21552 16.7591 3.20235 16.3547 3.20235 12.9415C3.20235 9.52827 3.21552 9.12384 3.27898 7.77577C3.33765 6.52879 3.55197 5.85243 3.73277 5.40152C3.97223 4.80534 4.256 4.37884 4.71698 3.93142C5.14212 3.50732 5.65964 3.18092 6.23161 2.97614C6.69618 2.80066 7.39303 2.59264 8.67777 2.53569ZM15.6822 16.8823C14.7427 17.2619 13.6966 17.3131 12.7225 17.0272C11.7484 16.7413 10.9067 16.1361 10.3413 15.3148C9.77594 14.4936 9.52183 13.5073 9.62242 12.5244C9.723 11.5415 10.172 10.623 10.8928 9.92572C11.3523 9.48001 11.9079 9.13873 12.5196 8.92645C13.1313 8.71417 13.7839 8.63617 14.4304 8.69806C15.0769 8.75994 15.7012 8.96019 16.2584 9.28437C16.8155 9.60855 17.2917 10.0486 17.6527 10.5729C18.0136 11.0971 18.2503 11.6925 18.3457 12.3162C18.4411 12.9399 18.3928 13.5763 18.2043 14.1797C18.0159 14.7831 17.692 15.3385 17.2558 15.8058C16.8197 16.2731 16.2823 16.6408 15.6822 16.8823ZM18.7869 8.29524C18.1583 7.68509 17.412 7.20109 16.5906 6.87088C15.7693 6.54067 14.889 6.37071 13.9999 6.37071C13.1109 6.37071 12.2306 6.54067 11.4093 6.87088C10.5879 7.20109 9.84161 7.68509 9.21298 8.29524C8.58435 8.90539 8.08569 9.62975 7.74548 10.4269C7.40527 11.2241 7.23016 12.0786 7.23016 12.9415C7.23016 13.8043 7.40527 14.6588 7.74548 15.456C8.08569 16.2532 8.58435 16.9775 9.21298 17.5877C10.4826 18.8199 12.2045 19.5122 13.9999 19.5122C15.7954 19.5122 17.5173 18.8199 18.7869 17.5877C20.0565 16.3554 20.7697 14.6841 20.7697 12.9415C20.7697 11.1988 20.0565 9.5275 18.7869 8.29524ZM5.72873 7.34926C5.57295 7.20663 5.44824 7.03511 5.36198 6.84486C5.27572 6.65461 5.22967 6.4495 5.22655 6.24166C5.22342 6.03383 5.2633 5.8275 5.34381 5.63489C5.42431 5.44228 5.54382 5.26731 5.69525 5.12033C5.84668 4.97335 6.02695 4.85736 6.2254 4.77922C6.42384 4.70107 6.63642 4.66237 6.85055 4.6654C7.06468 4.66843 7.27601 4.71313 7.47202 4.79686C7.66803 4.88058 7.84475 5.00162 7.9917 5.15282C8.27749 5.44688 8.43396 5.83746 8.42789 6.24166C8.42182 6.64586 8.25368 7.03186 7.95918 7.3177C7.66468 7.60354 7.267 7.76673 6.85055 7.77263C6.43411 7.77852 6.03169 7.62665 5.72873 7.34926Z" fill="white"/>
</svg>
