<svg width="147" height="129" viewBox="0 0 147 129" fill="none" xmlns="http://www.w3.org/2000/svg">
<path d="M145.839 62.0419L128.308 21.1357C127.858 20.0843 127.109 19.1881 126.154 18.5586C125.2 17.929 124.081 17.5937 122.937 17.5944H105.406V5.90686C105.406 4.357 104.791 2.87062 103.695 1.77471C102.599 0.678791 101.112 0.0631104 99.5625 0.0631104H6.06247V11.7506H93.7187V85.1247C91.0559 86.6709 88.7255 88.729 86.862 91.1803C84.9985 93.6316 83.6387 96.4275 82.861 99.4069H46.1389C44.7166 93.8982 41.334 89.0974 36.6252 85.9043C31.9165 82.7112 26.2048 81.345 20.5608 82.0619C14.9168 82.7788 9.72806 85.5295 5.96709 89.7984C2.20612 94.0673 0.131165 99.5613 0.131165 105.251C0.131165 110.94 2.20612 116.434 5.96709 120.703C9.72806 124.972 14.9168 127.722 20.5608 128.439C26.2048 129.156 31.9165 127.79 36.6252 124.597C41.334 121.404 44.7166 116.603 46.1389 111.094H82.861C84.1322 116.11 87.0395 120.558 91.1228 123.735C95.2061 126.913 100.232 128.638 105.406 128.638C110.58 128.638 115.606 126.913 119.69 123.735C123.773 120.558 126.68 116.11 127.951 111.094H140.469C142.019 111.094 143.505 110.479 144.601 109.383C145.697 108.287 146.312 106.8 146.312 105.251V64.3444C146.313 63.5527 146.152 62.7693 145.839 62.0419ZM23.5937 116.938C21.2822 116.938 19.0225 116.253 17.1005 114.968C15.1785 113.684 13.6805 111.859 12.7959 109.723C11.9113 107.588 11.6798 105.238 12.1308 102.97C12.5818 100.703 13.6949 98.6208 15.3294 96.9863C16.9639 95.3518 19.0464 94.2386 21.3136 93.7877C23.5808 93.3367 25.9307 93.5682 28.0663 94.4528C30.2019 95.3374 32.0273 96.8354 33.3115 98.7574C34.5958 100.679 35.2812 102.939 35.2812 105.251C35.2781 108.349 34.0458 111.32 31.8546 113.511C29.6635 115.703 26.6925 116.935 23.5937 116.938ZM105.406 29.2819H119.081L131.61 58.5006H105.406V29.2819ZM105.406 116.938C103.095 116.938 100.835 116.253 98.913 114.968C96.991 113.684 95.493 111.859 94.6084 109.723C93.7238 107.588 93.4923 105.238 93.9433 102.97C94.3943 100.703 95.5074 98.6208 97.1419 96.9863C98.7764 95.3518 100.859 94.2386 103.126 93.7877C105.393 93.3367 107.743 93.5682 109.879 94.4528C112.014 95.3374 113.84 96.8354 115.124 98.7574C116.408 100.679 117.094 102.939 117.094 105.251C117.091 108.349 115.858 111.32 113.667 113.511C111.476 115.703 108.505 116.935 105.406 116.938ZM134.625 99.4069H127.951C126.664 94.4013 123.752 89.9644 119.672 86.7917C115.592 83.619 110.575 81.89 105.406 81.8756V70.1881H134.625V99.4069Z" fill="#BF86AE"/>
</svg>
