<svg width="159" height="114" viewBox="0 0 159 114" fill="none" xmlns="http://www.w3.org/2000/svg">
<path d="M107.781 79.1881C106.281 79.1881 104.842 79.784 103.782 80.8448C102.721 81.9055 102.125 83.3442 102.125 84.8444C102.125 86.3445 102.721 87.7832 103.782 88.8439C104.842 89.9047 106.281 90.5006 107.781 90.5006H130.406C131.906 90.5006 133.345 89.9047 134.406 88.8439C135.467 87.7832 136.062 86.3445 136.062 84.8444C136.062 83.3442 135.467 81.9055 134.406 80.8448C133.345 79.784 131.906 79.1881 130.406 79.1881H107.781ZM0.3125 22.6256C0.3125 16.6251 2.6962 10.8703 6.93921 6.62732C11.1822 2.38431 16.937 0.000610352 22.9375 0.000610352H136.062C142.063 0.000610352 147.818 2.38431 152.061 6.62732C156.304 10.8703 158.688 16.6251 158.688 22.6256V90.5006C158.688 96.5011 156.304 102.256 152.061 106.499C147.818 110.742 142.063 113.126 136.062 113.126H22.9375C16.937 113.126 11.1822 110.742 6.93921 106.499C2.6962 102.256 0.3125 96.5011 0.3125 90.5006V22.6256ZM147.375 22.6256C147.375 19.6253 146.183 16.748 144.062 14.6265C141.94 12.505 139.063 11.3131 136.062 11.3131H22.9375C19.9372 11.3131 17.0599 12.505 14.9384 14.6265C12.8168 16.748 11.625 19.6253 11.625 22.6256V33.9381H147.375V22.6256ZM11.625 90.5006C11.625 93.5009 12.8168 96.3783 14.9384 98.4998C17.0599 100.621 19.9372 101.813 22.9375 101.813H136.062C139.063 101.813 141.94 100.621 144.062 98.4998C146.183 96.3783 147.375 93.5009 147.375 90.5006V45.2506H11.625V90.5006Z" fill="#BF86AE"/>
</svg>
