<svg width="143" height="143" viewBox="0 0 143 143" fill="none" xmlns="http://www.w3.org/2000/svg">
<path d="M117.503 73.3991L117.747 73.71L118.106 73.5434C120.265 72.5411 122.656 72.001 125.125 72.001C134.779 72.001 142.5 79.7216 142.5 89.376C142.5 99.0304 134.779 106.751 125.125 106.751H124.648H124.058L124.155 107.333C124.468 109.21 124.625 111.248 124.625 113.209C124.625 129.489 114.105 142.501 101.292 142.501C93.4918 142.501 86.5667 137.635 82.2617 130.121L82.093 129.826L81.7571 129.874C78.445 130.348 75.0525 130.584 71.5001 130.584C67.9476 130.584 64.5551 130.348 61.243 129.874L60.9071 129.826L60.7384 130.121C56.4334 137.635 49.5083 142.501 41.7084 142.501C28.8955 142.501 18.3751 129.489 18.3751 113.209C18.3751 111.248 18.5321 109.21 18.845 107.333L18.942 106.751H18.3518H17.8751C8.22069 106.751 0.500104 99.0304 0.500107 89.376L0.500101 89.3743C0.490212 86.4803 1.20665 83.6301 2.5838 81.0848C3.96094 78.5395 5.95475 76.3805 8.38259 74.8054C10.8104 73.2304 13.5947 72.2898 16.4803 72.0697C19.3659 71.8496 22.2606 72.3571 24.8992 73.5457L25.2557 73.7063L25.4975 73.3991C29.2609 68.6163 34.3663 64.5283 40.4295 61.3786L40.9388 61.114L40.6069 60.6457C36.213 54.4472 33.4695 46.7615 33.4695 38.5315V38.0549V37.6538L33.078 37.5668C24.7206 35.7096 18.3751 28.2015 18.3751 19.2265C18.3751 8.93656 26.8107 0.500977 37.1006 0.500977C42.4454 0.500977 47.3947 2.74842 50.6342 6.29644L50.9171 6.60637L51.2714 6.3814C57.3194 2.54098 64.3357 0.501564 71.5001 0.501564C78.6644 0.501564 85.6807 2.54098 91.7287 6.3814L92.083 6.60637L92.3659 6.29644C95.6054 2.74842 100.555 0.500977 105.899 0.500977C116.189 0.500977 124.625 8.93656 124.625 19.2265C124.625 28.2819 118.279 35.7865 109.848 37.5656L109.451 37.6494V38.0549V38.5315C109.451 46.7629 106.786 54.3687 102.314 60.6447L101.979 61.1158L102.494 61.3798C108.635 64.5291 113.739 68.6167 117.503 73.3991ZM88.875 113.209C88.875 121.636 94.3222 128.645 101.292 128.645C108.261 128.645 113.708 121.636 113.708 113.209C113.708 104.86 108.26 97.8532 101.292 97.8532C94.3237 97.8532 88.875 104.86 88.875 113.209ZM53.1251 50.6865C53.1251 59.228 61.4633 66.0426 71.5001 66.0426C81.5368 66.0426 89.875 59.228 89.875 50.6865C89.875 42.0672 81.5387 35.251 71.5001 35.251C61.4614 35.251 53.1251 42.0672 53.1251 50.6865ZM29.2917 113.209C29.2917 121.636 34.7389 128.645 41.7084 128.645C48.6779 128.645 54.1251 121.636 54.1251 113.209C54.1251 104.86 48.6764 97.8532 41.7084 97.8532C34.7404 97.8532 29.2917 104.86 29.2917 113.209ZM71.5001 42.2093C74.4811 42.2093 76.9584 44.6866 76.9584 47.6676C76.9584 50.6487 74.4811 53.126 71.5001 53.126C68.519 53.126 66.0417 50.6487 66.0417 47.6676C66.0417 44.6866 68.519 42.2093 71.5001 42.2093Z" fill="#BF86AE" stroke="#BF86AE"/>
</svg>
