<svg width="41" height="41" viewBox="0 0 41 41" fill="none" xmlns="http://www.w3.org/2000/svg">
<g clip-path="url(#clip0_1_20)">
<path d="M20.5 0.820068C9.63091 0.820068 0.820007 9.63097 0.820007 20.5001C0.820007 31.3692 9.63091 40.1801 20.5 40.1801C31.3691 40.1801 40.18 31.3692 40.18 20.5001C40.18 9.63097 31.3691 0.820068 20.5 0.820068ZM28.0686 23.0236C28.0686 23.0236 29.8091 24.7415 30.2375 25.539C30.2498 25.5554 30.256 25.5718 30.2601 25.58C30.4343 25.8731 30.4753 26.1007 30.3892 26.2708C30.2457 26.5537 29.7537 26.6931 29.5856 26.7054H26.5106C26.2974 26.7054 25.8505 26.6501 25.3093 26.277C24.8932 25.9859 24.4832 25.5082 24.0834 25.0429C23.4869 24.35 22.9703 23.7514 22.4496 23.7514C22.3834 23.7513 22.3177 23.7616 22.2548 23.7821C21.8612 23.9092 21.3569 24.4709 21.3569 25.9674C21.3569 26.4348 20.9879 26.7034 20.7276 26.7034H19.3192C18.8395 26.7034 16.3406 26.5353 14.1266 24.2003C11.4165 21.3406 8.97696 15.6047 8.95646 15.5514C8.80271 15.1803 9.12046 14.9815 9.46691 14.9815H12.5727C12.9868 14.9815 13.1221 15.2336 13.2164 15.4571C13.3271 15.7174 13.733 16.7527 14.3992 17.9171C15.4796 19.8154 16.1417 20.5862 16.6727 20.5862C16.7722 20.585 16.87 20.5597 16.9576 20.5124C17.6505 20.127 17.5214 17.6567 17.4906 17.1442C17.4906 17.0479 17.4886 16.0393 17.1339 15.5555C16.8797 15.2049 16.4472 15.0717 16.1848 15.0225C16.291 14.8759 16.4309 14.7571 16.5927 14.676C17.0683 14.4382 17.9252 14.4034 18.776 14.4034H19.2495C20.172 14.4157 20.4098 14.4751 20.744 14.5592C21.4205 14.7211 21.4348 15.1578 21.3754 16.6522C21.3569 17.0766 21.3385 17.5563 21.3385 18.1221C21.3385 18.2451 21.3323 18.3763 21.3323 18.5157C21.3118 19.2762 21.2872 20.1393 21.8243 20.4939C21.8944 20.5379 21.9753 20.5613 22.058 20.5616C22.2446 20.5616 22.8063 20.5616 24.3274 17.9519C24.7965 17.1119 25.2041 16.2391 25.5471 15.3402C25.5779 15.2869 25.6681 15.1229 25.7747 15.0594C25.8533 15.0193 25.9406 14.9989 26.0289 14.9999H29.6799C30.0776 14.9999 30.3503 15.0594 30.4015 15.2131C30.4917 15.4571 30.3851 16.2012 28.7185 18.4583L27.9743 19.4402C26.4635 21.4205 26.4635 21.521 28.0686 23.0236Z" fill="#886788"/>
</g>
<defs>
<clipPath id="clip0_1_20">
<rect width="41" height="41" fill="white"/>
</clipPath>
</defs>
</svg>
